<svg width="32" height="32" viewBox="0 0 32 32" fill="none" xmlns="http://www.w3.org/2000/svg">
<rect width="32" height="32" rx="16" fill="#FFF1D6"/>
<path d="M9.23077 9V18.2308C9.23077 18.7204 9.42527 19.19 9.7715 19.5362C10.1177 19.8824 10.5873 20.0769 11.0769 20.0769H12.9231M9.23077 9H8M9.23077 9H22.7692M22.7692 9H24M22.7692 9V18.2308C22.7692 18.7204 22.5747 19.19 22.2285 19.5362C21.8823 19.8824 21.4127 20.0769 20.9231 20.0769H19.0769M12.9231 20.0769H19.0769M12.9231 20.0769L12.1026 22.5385M19.0769 20.0769L19.8974 22.5385M19.8974 22.5385L20.3077 23.7692M19.8974 22.5385H12.1026M12.1026 22.5385L11.6923 23.7692M12.3077 16.3846L14.7692 13.9231L16.5317 15.6855C17.3598 14.4969 18.4387 13.5045 19.6923 12.7785" stroke="#FFC355" stroke-width="1.5" stroke-linecap="round" stroke-linejoin="round"/>
</svg>
