<svg width="32" height="32" viewBox="0 0 32 32" fill="none" xmlns="http://www.w3.org/2000/svg">
<rect width="32" height="32" rx="16" fill="#FFEFDB"/>
<path d="M8.04134 16.2478C7.98622 16.0822 7.98622 15.9031 8.04134 15.7374C9.14921 12.4042 12.2939 10 16.0001 10C19.7047 10 22.8478 12.4018 23.9581 15.7334C24.014 15.8988 24.014 16.0777 23.9581 16.2438C22.851 19.577 19.7063 21.9813 16.0001 21.9813C12.2955 21.9813 9.15241 19.5794 8.04214 16.2478H8.04134Z" stroke="#AA6E00" stroke-width="1.5" stroke-linecap="round" stroke-linejoin="round"/>
<path d="M18 16C18 16.5304 17.7893 17.0391 17.4142 17.4142C17.0391 17.7893 16.5304 18 16 18C15.4696 18 14.9609 17.7893 14.5858 17.4142C14.2107 17.0391 14 16.5304 14 16C14 15.4696 14.2107 14.9609 14.5858 14.5858C14.9609 14.2107 15.4696 14 16 14C16.5304 14 17.0391 14.2107 17.4142 14.5858C17.7893 14.9609 18 15.4696 18 16V16Z" stroke="#AA6E00" stroke-width="1.5" stroke-linecap="round" stroke-linejoin="round"/>
</svg>
