<svg width="164" height="60" viewBox="0 0 164 60" fill="none" xmlns="http://www.w3.org/2000/svg">
<rect x="0.0620117" width="162.969" height="59.2614" rx="17.7784" fill="#0A060B"/>
<path d="M42.2859 19.1484H39.6258V10.5286H42.4037C43.2399 10.5286 43.9554 10.7012 44.5503 11.0463C45.1451 11.3886 45.6011 11.8811 45.9182 12.5236C46.2352 13.1634 46.3938 13.9294 46.3938 14.8217C46.3938 15.7196 46.2338 16.4926 45.914 17.1408C45.5941 17.7862 45.1283 18.2828 44.5166 18.6307C43.9049 18.9759 43.1613 19.1484 42.2859 19.1484ZM40.6697 18.2225H42.2185C42.9312 18.2225 43.5219 18.085 43.9905 17.81C44.4591 17.535 44.8084 17.1436 45.0385 16.6357C45.2686 16.1278 45.3836 15.5232 45.3836 14.8217C45.3836 14.1258 45.27 13.5267 45.0427 13.0245C44.8154 12.5194 44.4759 12.1322 44.0242 11.8628C43.5724 11.5906 43.0098 11.4546 42.3364 11.4546H40.6697V18.2225ZM50.6363 19.2831C50.0527 19.2831 49.5406 19.1442 49.1001 18.8664C48.6624 18.5887 48.32 18.2 48.0731 17.7006C47.829 17.2011 47.7069 16.6175 47.7069 15.9497C47.7069 15.2762 47.829 14.6884 48.0731 14.1861C48.32 13.6839 48.6624 13.2938 49.1001 13.0161C49.5406 12.7383 50.0527 12.5994 50.6363 12.5994C51.22 12.5994 51.7307 12.7383 52.1684 13.0161C52.6089 13.2938 52.9512 13.6839 53.1954 14.1861C53.4423 14.6884 53.5657 15.2762 53.5657 15.9497C53.5657 16.6175 53.4423 17.2011 53.1954 17.7006C52.9512 18.2 52.6089 18.5887 52.1684 18.8664C51.7307 19.1442 51.22 19.2831 50.6363 19.2831ZM50.6363 18.3908C51.0797 18.3908 51.4445 18.2772 51.7307 18.0499C52.0169 17.8226 52.2287 17.5238 52.3662 17.1534C52.5037 16.783 52.5724 16.3818 52.5724 15.9497C52.5724 15.5176 52.5037 15.1149 52.3662 14.7417C52.2287 14.3685 52.0169 14.0669 51.7307 13.8368C51.4445 13.6067 51.0797 13.4917 50.6363 13.4917C50.193 13.4917 49.8282 13.6067 49.542 13.8368C49.2558 14.0669 49.044 14.3685 48.9065 14.7417C48.769 15.1149 48.7002 15.5176 48.7002 15.9497C48.7002 16.3818 48.769 16.783 48.9065 17.1534C49.044 17.5238 49.2558 17.8226 49.542 18.0499C49.8282 18.2772 50.193 18.3908 50.6363 18.3908ZM56.3268 19.1484L54.357 12.6836H55.4008L56.7982 17.6332H56.8655L58.2461 12.6836H59.3067L60.6704 17.6164H60.7377L62.1351 12.6836H63.1789L61.2091 19.1484H60.2327L58.8185 14.1819H58.7175L57.3033 19.1484H56.3268ZM65.4854 15.2594V19.1484H64.4921V12.6836H65.4517V13.6937H65.5359C65.6874 13.3654 65.9175 13.1016 66.2261 12.9024C66.5348 12.7004 66.9332 12.5994 67.4215 12.5994C67.8592 12.5994 68.2422 12.6892 68.5705 12.8687C68.8988 13.0455 69.1541 13.3149 69.3365 13.6769C69.5189 14.036 69.6101 14.4906 69.6101 15.0405V19.1484H68.6168V15.1079C68.6168 14.6 68.4849 14.2044 68.2212 13.921C67.9574 13.6348 67.5954 13.4917 67.1353 13.4917C66.8182 13.4917 66.5348 13.5604 66.2851 13.6979C66.0381 13.8354 65.8431 14.036 65.7 14.2998C65.5569 14.5635 65.4854 14.8834 65.4854 15.2594ZM72.4185 10.5286V19.1484H71.4252V10.5286H72.4185ZM76.8642 19.2831C76.2805 19.2831 75.7684 19.1442 75.3279 18.8664C74.8902 18.5887 74.5479 18.2 74.3009 17.7006C74.0568 17.2011 73.9348 16.6175 73.9348 15.9497C73.9348 15.2762 74.0568 14.6884 74.3009 14.1861C74.5479 13.6839 74.8902 13.2938 75.3279 13.0161C75.7684 12.7383 76.2805 12.5994 76.8642 12.5994C77.4478 12.5994 77.9585 12.7383 78.3962 13.0161C78.8367 13.2938 79.1791 13.6839 79.4232 14.1861C79.6701 14.6884 79.7936 15.2762 79.7936 15.9497C79.7936 16.6175 79.6701 17.2011 79.4232 17.7006C79.1791 18.2 78.8367 18.5887 78.3962 18.8664C77.9585 19.1442 77.4478 19.2831 76.8642 19.2831ZM76.8642 18.3908C77.3075 18.3908 77.6723 18.2772 77.9585 18.0499C78.2447 17.8226 78.4565 17.5238 78.594 17.1534C78.7315 16.783 78.8003 16.3818 78.8003 15.9497C78.8003 15.5176 78.7315 15.1149 78.594 14.7417C78.4565 14.3685 78.2447 14.0669 77.9585 13.8368C77.6723 13.6067 77.3075 13.4917 76.8642 13.4917C76.4208 13.4917 76.0561 13.6067 75.7698 13.8368C75.4836 14.0669 75.2718 14.3685 75.1343 14.7417C74.9968 15.1149 74.9281 15.5176 74.9281 15.9497C74.9281 16.3818 74.9968 16.783 75.1343 17.1534C75.2718 17.5238 75.4836 17.8226 75.7698 18.0499C76.0561 18.2772 76.4208 18.3908 76.8642 18.3908ZM83.2123 19.3C82.8026 19.3 82.4308 19.2228 82.0969 19.0685C81.763 18.9113 81.4978 18.6855 81.3014 18.3908C81.105 18.0934 81.0068 17.7342 81.0068 17.3134C81.0068 16.943 81.0797 16.6427 81.2256 16.4126C81.3716 16.1798 81.5666 15.9974 81.8107 15.8655C82.0548 15.7336 82.3242 15.6354 82.6188 15.5709C82.9162 15.5035 83.2151 15.4502 83.5153 15.4109C83.9081 15.3604 84.2266 15.3225 84.4707 15.2973C84.7176 15.2692 84.8972 15.2229 85.0095 15.1584C85.1245 15.0939 85.182 14.9816 85.182 14.8217V14.788C85.182 14.3727 85.0684 14.05 84.8411 13.82C84.6166 13.5899 84.2757 13.4748 83.8183 13.4748C83.3441 13.4748 82.9723 13.5786 82.703 13.7863C82.4336 13.9939 82.2442 14.2156 82.1348 14.4513L81.192 14.1146C81.3603 13.7218 81.5848 13.4159 81.8654 13.197C82.1488 12.9754 82.4575 12.821 82.7914 12.7341C83.1281 12.6443 83.4592 12.5994 83.7847 12.5994C83.9923 12.5994 84.2308 12.6246 84.5002 12.6751C84.7724 12.7228 85.0347 12.8224 85.2872 12.974C85.5426 13.1255 85.7544 13.3542 85.9228 13.66C86.0911 13.9659 86.1753 14.3755 86.1753 14.889V19.1484H85.182V18.273H85.1315C85.0642 18.4133 84.9519 18.5634 84.7948 18.7233C84.6377 18.8833 84.4286 19.0194 84.1677 19.1316C83.9067 19.2438 83.5882 19.3 83.2123 19.3ZM83.3638 18.4077C83.7566 18.4077 84.0877 18.3305 84.3571 18.1762C84.6293 18.0219 84.8341 17.8226 84.9716 17.5785C85.1119 17.3344 85.182 17.0777 85.182 16.8083V15.8992C85.1399 15.9497 85.0473 15.996 84.9042 16.0381C84.7639 16.0773 84.6012 16.1124 84.416 16.1433C84.2336 16.1713 84.0554 16.1966 83.8815 16.219C83.7103 16.2387 83.5714 16.2555 83.4648 16.2695C83.2066 16.3032 82.9653 16.3579 82.7409 16.4337C82.5192 16.5066 82.3396 16.6175 82.2021 16.7662C82.0674 16.9121 82.0001 17.1113 82.0001 17.3639C82.0001 17.709 82.1278 17.9699 82.3831 18.1467C82.6412 18.3207 82.9681 18.4077 83.3638 18.4077ZM90.4295 19.2831C89.8907 19.2831 89.4151 19.147 89.0027 18.8749C88.5902 18.5999 88.2675 18.2127 88.0346 17.7132C87.8017 17.2109 87.6853 16.6175 87.6853 15.9328C87.6853 15.2538 87.8017 14.6645 88.0346 14.1651C88.2675 13.6656 88.5916 13.2798 89.0069 13.0076C89.4221 12.7355 89.902 12.5994 90.4463 12.5994C90.8672 12.5994 91.1997 12.6695 91.4438 12.8098C91.6907 12.9473 91.8787 13.1044 92.0078 13.2812C92.1397 13.4552 92.2421 13.5983 92.3151 13.7105H92.3992V10.5286H93.3925V19.1484H92.4329V18.1551H92.3151C92.2421 18.273 92.1383 18.4217 92.0036 18.6013C91.8689 18.7781 91.6767 18.9366 91.427 19.0769C91.1773 19.2144 90.8448 19.2831 90.4295 19.2831ZM90.5642 18.3908C90.9626 18.3908 91.2993 18.287 91.5743 18.0794C91.8493 17.8689 92.0583 17.5785 92.2014 17.2081C92.3445 16.8349 92.4161 16.4042 92.4161 15.916C92.4161 15.4334 92.3459 15.0111 92.2056 14.6491C92.0653 14.2843 91.8577 14.0009 91.5827 13.7989C91.3077 13.5941 90.9682 13.4917 90.5642 13.4917C90.1433 13.4917 89.7925 13.5997 89.5119 13.8157C89.2341 14.029 89.0251 14.3194 88.8848 14.687C88.7473 15.0518 88.6786 15.4614 88.6786 15.916C88.6786 16.3762 88.7487 16.7943 88.889 17.1703C89.0321 17.5434 89.2426 17.8409 89.5204 18.0625C89.8009 18.2814 90.1489 18.3908 90.5642 18.3908ZM101.31 19.2831C100.726 19.2831 100.214 19.1442 99.7733 18.8664C99.3355 18.5887 98.9932 18.2 98.7463 17.7006C98.5022 17.2011 98.3801 16.6175 98.3801 15.9497C98.3801 15.2762 98.5022 14.6884 98.7463 14.1861C98.9932 13.6839 99.3355 13.2938 99.7733 13.0161C100.214 12.7383 100.726 12.5994 101.31 12.5994C101.893 12.5994 102.404 12.7383 102.842 13.0161C103.282 13.2938 103.624 13.6839 103.869 14.1861C104.115 14.6884 104.239 15.2762 104.239 15.9497C104.239 16.6175 104.115 17.2011 103.869 17.7006C103.624 18.2 103.282 18.5887 102.842 18.8664C102.404 19.1442 101.893 19.2831 101.31 19.2831ZM101.31 18.3908C101.753 18.3908 102.118 18.2772 102.404 18.0499C102.69 17.8226 102.902 17.5238 103.039 17.1534C103.177 16.783 103.246 16.3818 103.246 15.9497C103.246 15.5176 103.177 15.1149 103.039 14.7417C102.902 14.3685 102.69 14.0669 102.404 13.8368C102.118 13.6067 101.753 13.4917 101.31 13.4917C100.866 13.4917 100.501 13.6067 100.215 13.8368C99.929 14.0669 99.7171 14.3685 99.5796 14.7417C99.4422 15.1149 99.3734 15.5176 99.3734 15.9497C99.3734 16.3818 99.4422 16.783 99.5796 17.1534C99.7171 17.5238 99.929 17.8226 100.215 18.0499C100.501 18.2772 100.866 18.3908 101.31 18.3908ZM106.748 15.2594V19.1484H105.755V12.6836H106.715V13.6937H106.799C106.951 13.3654 107.181 13.1016 107.489 12.9024C107.798 12.7004 108.196 12.5994 108.685 12.5994C109.122 12.5994 109.505 12.6892 109.834 12.8687C110.162 13.0455 110.417 13.3149 110.6 13.6769C110.782 14.036 110.873 14.4906 110.873 15.0405V19.1484H109.88V15.1079C109.88 14.6 109.748 14.2044 109.484 13.921C109.221 13.6348 108.859 13.4917 108.398 13.4917C108.081 13.4917 107.798 13.5604 107.548 13.6979C107.301 13.8354 107.106 14.036 106.963 14.2998C106.82 14.5635 106.748 14.8834 106.748 15.2594ZM118.833 12.6836V13.5253H115.483V12.6836H118.833ZM116.459 11.1347H117.453V17.2965C117.453 17.5771 117.493 17.7876 117.575 17.9279C117.659 18.0653 117.766 18.1579 117.895 18.2056C118.027 18.2505 118.165 18.273 118.311 18.273C118.421 18.273 118.511 18.2674 118.581 18.2561C118.651 18.2421 118.707 18.2309 118.749 18.2225L118.951 19.1148C118.884 19.14 118.79 19.1653 118.669 19.1905C118.548 19.2186 118.396 19.2326 118.21 19.2326C117.93 19.2326 117.655 19.1723 117.385 19.0516C117.119 18.931 116.897 18.7472 116.72 18.5003C116.546 18.2533 116.459 17.9419 116.459 17.5659V11.1347ZM121.46 15.2594V19.1484H120.466V10.5286H121.46V13.6937H121.544C121.695 13.3598 121.923 13.0946 122.226 12.8982C122.532 12.699 122.938 12.5994 123.446 12.5994C123.887 12.5994 124.273 12.6878 124.604 12.8645C124.935 13.0385 125.192 13.3065 125.374 13.6684C125.559 14.0276 125.652 14.485 125.652 15.0405V19.1484H124.658V15.1079C124.658 14.5944 124.525 14.1974 124.259 13.9168C123.995 13.6334 123.629 13.4917 123.16 13.4917C122.835 13.4917 122.543 13.5604 122.285 13.6979C122.029 13.8354 121.827 14.036 121.679 14.2998C121.533 14.5635 121.46 14.8834 121.46 15.2594ZM130.179 19.2831C129.557 19.2831 129.019 19.1456 128.567 18.8706C128.119 18.5929 127.772 18.2056 127.528 17.709C127.287 17.2095 127.166 16.6287 127.166 15.9665C127.166 15.3043 127.287 14.7207 127.528 14.2156C127.772 13.7077 128.111 13.3121 128.546 13.0287C128.984 12.7425 129.495 12.5994 130.078 12.5994C130.415 12.5994 130.748 12.6555 131.076 12.7677C131.404 12.88 131.703 13.0624 131.972 13.3149C132.242 13.5646 132.456 13.8957 132.616 14.3082C132.776 14.7207 132.856 15.2285 132.856 15.8318V16.2527H127.873V15.3941H131.846C131.846 15.0293 131.773 14.7038 131.627 14.4176C131.484 14.1314 131.279 13.9055 131.013 13.74C130.749 13.5744 130.438 13.4917 130.078 13.4917C129.683 13.4917 129.34 13.5899 129.051 13.7863C128.765 13.9799 128.545 14.2324 128.391 14.5439C128.236 14.8553 128.159 15.1893 128.159 15.5456V16.118C128.159 16.6063 128.243 17.0201 128.412 17.3597C128.583 17.6964 128.82 17.9531 129.123 18.1299C129.426 18.3038 129.778 18.3908 130.179 18.3908C130.44 18.3908 130.676 18.3544 130.887 18.2814C131.1 18.2056 131.284 18.0934 131.438 17.9447C131.592 17.7932 131.712 17.6052 131.796 17.3807L132.755 17.6501C132.654 17.9756 132.485 18.2618 132.246 18.5087C132.008 18.7528 131.713 18.9436 131.362 19.0811C131.011 19.2158 130.617 19.2831 130.179 19.2831Z" fill="white"/>
<path d="M43.0519 45.2227H39.146L45.0974 27.983H49.7946L55.7375 45.2227H51.8317L47.5133 31.9225H47.3787L43.0519 45.2227ZM42.8078 38.4463H52.0337V41.2915H42.8078V38.4463ZM57.7452 50.0713V32.2929H61.2807V34.4647H61.4406C61.5977 34.1167 61.825 33.7632 62.1225 33.404C62.4255 33.0393 62.8183 32.7362 63.301 32.4949C63.7892 32.248 64.3953 32.1245 65.1192 32.1245C66.062 32.1245 66.9318 32.3715 67.7287 32.8653C68.5256 33.3535 69.1626 34.0915 69.6396 35.0792C70.1166 36.0613 70.3551 37.2931 70.3551 38.7746C70.3551 40.2169 70.1222 41.4346 69.6564 42.4279C69.1962 43.4156 68.5677 44.1648 67.7708 44.6755C66.9795 45.1806 66.0929 45.4331 65.1108 45.4331C64.4149 45.4331 63.8229 45.3181 63.3346 45.088C62.852 44.8579 62.4564 44.5689 62.1477 44.2209C61.8391 43.8674 61.6034 43.511 61.4406 43.1519H61.3312V50.0713H57.7452ZM61.2554 38.7578C61.2554 39.5266 61.3621 40.1972 61.5753 40.7696C61.7886 41.342 62.0972 41.7882 62.5013 42.1081C62.9053 42.4223 63.3964 42.5795 63.9744 42.5795C64.558 42.5795 65.0519 42.4195 65.4559 42.0996C65.86 41.7742 66.1658 41.3252 66.3735 40.7528C66.5867 40.1748 66.6933 39.5098 66.6933 38.7578C66.6933 38.0114 66.5895 37.3548 66.3819 36.788C66.1742 36.2212 65.8684 35.7779 65.4643 35.458C65.0603 35.1381 64.5636 34.9782 63.9744 34.9782C63.3907 34.9782 62.8969 35.1325 62.4928 35.4412C62.0944 35.7498 61.7886 36.1875 61.5753 36.7543C61.3621 37.3211 61.2554 37.9889 61.2554 38.7578ZM72.7457 50.0713V32.2929H76.2812V34.4647H76.4412C76.5983 34.1167 76.8256 33.7632 77.123 33.404C77.4261 33.0393 77.8189 32.7362 78.3015 32.4949C78.7897 32.248 79.3958 32.1245 80.1198 32.1245C81.0626 32.1245 81.9324 32.3715 82.7293 32.8653C83.5262 33.3535 84.1631 34.0915 84.6401 35.0792C85.1171 36.0613 85.3556 37.2931 85.3556 38.7746C85.3556 40.2169 85.1227 41.4346 84.657 42.4279C84.1968 43.4156 83.5683 44.1648 82.7714 44.6755C81.9801 45.1806 81.0934 45.4331 80.1113 45.4331C79.4155 45.4331 78.8234 45.3181 78.3352 45.088C77.8526 44.8579 77.4569 44.5689 77.1483 44.2209C76.8396 43.8674 76.6039 43.511 76.4412 43.1519H76.3317V50.0713H72.7457ZM76.256 38.7578C76.256 39.5266 76.3626 40.1972 76.5759 40.7696C76.7891 41.342 77.0978 41.7882 77.5018 42.1081C77.9059 42.4223 78.3969 42.5795 78.9749 42.5795C79.5586 42.5795 80.0524 42.4195 80.4565 42.0996C80.8605 41.7742 81.1664 41.3252 81.374 40.7528C81.5873 40.1748 81.6939 39.5098 81.6939 38.7578C81.6939 38.0114 81.5901 37.3548 81.3824 36.788C81.1748 36.2212 80.8689 35.7779 80.4649 35.458C80.0608 35.1381 79.5642 34.9782 78.9749 34.9782C78.3913 34.9782 77.8975 35.1325 77.4934 35.4412C77.095 35.7498 76.7891 36.1875 76.5759 36.7543C76.3626 37.3211 76.256 37.9889 76.256 38.7578ZM102.652 32.9411C102.585 32.262 102.296 31.7345 101.785 31.3585C101.274 30.9825 100.581 30.7945 99.7059 30.7945C99.1111 30.7945 98.6088 30.8787 98.1991 31.047C97.7895 31.2098 97.4752 31.4371 97.2563 31.7289C97.0431 32.0207 96.9365 32.3518 96.9365 32.7222C96.9252 33.0308 96.9898 33.3002 97.1301 33.5303C97.276 33.7604 97.4752 33.9596 97.7277 34.128C97.9803 34.2907 98.2721 34.4338 98.6032 34.5573C98.9343 34.6751 99.2878 34.7761 99.6638 34.8603L101.213 35.2307C101.965 35.3991 102.655 35.6235 103.283 35.9041C103.912 36.1847 104.456 36.5299 104.917 36.9395C105.377 37.3492 105.733 37.8318 105.986 38.3874C106.244 38.943 106.376 39.5799 106.381 40.2982C106.376 41.3533 106.106 42.268 105.573 43.0424C105.046 43.8113 104.282 44.4089 103.283 44.8354C102.29 45.2563 101.092 45.4668 99.6891 45.4668C98.2973 45.4668 97.0852 45.2535 96.0526 44.827C95.0256 44.4005 94.2231 43.7692 93.6451 42.933C93.0727 42.0912 92.7724 41.0502 92.7444 39.81H96.2714C96.3107 40.388 96.4763 40.8706 96.7681 41.2579C97.0655 41.6395 97.4612 41.9285 97.955 42.1249C98.4545 42.3157 99.0185 42.4111 99.647 42.4111C100.264 42.4111 100.8 42.3213 101.255 42.1417C101.715 41.9622 102.071 41.7124 102.324 41.3925C102.576 41.0727 102.703 40.7051 102.703 40.2898C102.703 39.9026 102.588 39.5771 102.358 39.3133C102.133 39.0496 101.802 38.8251 101.364 38.6399C100.932 38.4547 100.402 38.2864 99.7733 38.1349L97.8961 37.6635C96.4426 37.3099 95.295 36.7571 94.4532 36.0051C93.6114 35.2532 93.1933 34.2402 93.1989 32.9663C93.1933 31.9225 93.4711 31.0106 94.0323 30.2305C94.5991 29.4505 95.3763 28.8416 96.364 28.4039C97.3517 27.9661 98.4741 27.7473 99.7312 27.7473C101.011 27.7473 102.127 27.9661 103.081 28.4039C104.041 28.8416 104.787 29.4505 105.321 30.2305C105.854 31.0106 106.129 31.9141 106.146 32.9411H102.652ZM115.643 32.2929V34.9866H107.856V32.2929H115.643ZM109.624 29.1951H113.21V41.2494C113.21 41.5805 113.261 41.8387 113.362 42.0239C113.463 42.2035 113.603 42.3297 113.783 42.4027C113.968 42.4756 114.181 42.5121 114.422 42.5121C114.591 42.5121 114.759 42.4981 114.927 42.47C115.096 42.4364 115.225 42.4111 115.315 42.3943L115.879 45.0627C115.699 45.1188 115.447 45.1834 115.121 45.2563C114.796 45.3349 114.4 45.3826 113.934 45.3994C113.07 45.4331 112.312 45.3181 111.661 45.0543C111.016 44.7905 110.514 44.3809 110.155 43.8253C109.795 43.2697 109.619 42.5682 109.624 41.7208V29.1951ZM123.682 45.4752C122.374 45.4752 121.244 45.1974 120.29 44.6418C119.341 44.0806 118.609 43.3006 118.093 42.3017C117.576 41.2971 117.318 40.1327 117.318 38.8083C117.318 37.4727 117.576 36.3054 118.093 35.3065C118.609 34.3019 119.341 33.5219 120.29 32.9663C121.244 32.4051 122.374 32.1245 123.682 32.1245C124.99 32.1245 126.118 32.4051 127.066 32.9663C128.02 33.5219 128.755 34.3019 129.271 35.3065C129.788 36.3054 130.046 37.4727 130.046 38.8083C130.046 40.1327 129.788 41.2971 129.271 42.3017C128.755 43.3006 128.02 44.0806 127.066 44.6418C126.118 45.1974 124.99 45.4752 123.682 45.4752ZM123.699 42.6973C124.294 42.6973 124.79 42.529 125.189 42.1922C125.587 41.8499 125.887 41.3841 126.089 40.7949C126.297 40.2056 126.401 39.535 126.401 38.783C126.401 38.031 126.297 37.3604 126.089 36.7712C125.887 36.1819 125.587 35.7161 125.189 35.3738C124.79 35.0315 124.294 34.8603 123.699 34.8603C123.098 34.8603 122.593 35.0315 122.184 35.3738C121.78 35.7161 121.474 36.1819 121.266 36.7712C121.064 37.3604 120.963 38.031 120.963 38.783C120.963 39.535 121.064 40.2056 121.266 40.7949C121.474 41.3841 121.78 41.8499 122.184 42.1922C122.593 42.529 123.098 42.6973 123.699 42.6973ZM132.378 45.2227V32.2929H135.854V34.5489H135.989C136.225 33.7464 136.62 33.1403 137.176 32.7306C137.731 32.3153 138.371 32.1077 139.095 32.1077C139.275 32.1077 139.468 32.1189 139.676 32.1414C139.883 32.1638 140.066 32.1947 140.223 32.234V35.4159C140.055 35.3654 139.822 35.3205 139.524 35.2812C139.227 35.2419 138.955 35.2223 138.708 35.2223C138.18 35.2223 137.709 35.3373 137.294 35.5674C136.884 35.7919 136.558 36.1062 136.317 36.5102C136.081 36.9143 135.964 37.3801 135.964 37.9076V45.2227H132.378ZM147.368 45.4752C146.038 45.4752 144.893 45.2058 143.933 44.6671C142.979 44.1227 142.244 43.3539 141.728 42.3606C141.211 41.3617 140.953 40.1804 140.953 38.8167C140.953 37.4867 141.211 36.3194 141.728 35.3149C142.244 34.3104 142.971 33.5275 143.908 32.9663C144.851 32.4051 145.956 32.1245 147.224 32.1245C148.078 32.1245 148.872 32.262 149.607 32.537C150.348 32.8064 150.993 33.2132 151.543 33.7576C152.098 34.3019 152.531 34.9866 152.839 35.8115C153.148 36.6309 153.302 37.5905 153.302 38.6904V39.6753H142.384V37.453H149.927C149.927 36.9367 149.814 36.4793 149.59 36.0809C149.365 35.6825 149.054 35.371 148.656 35.1465C148.263 34.9164 147.805 34.8014 147.283 34.8014C146.739 34.8014 146.256 34.9277 145.836 35.1802C145.42 35.4271 145.095 35.761 144.859 36.1819C144.623 36.5972 144.503 37.0602 144.497 37.5709V39.6837C144.497 40.3235 144.615 40.8763 144.851 41.342C145.092 41.8078 145.432 42.167 145.869 42.4195C146.307 42.6721 146.826 42.7983 147.427 42.7983C147.825 42.7983 148.19 42.7422 148.521 42.63C148.852 42.5177 149.135 42.3494 149.371 42.1249C149.607 41.9004 149.786 41.6254 149.91 41.3L153.226 41.5188C153.058 42.3157 152.713 43.0116 152.191 43.6064C151.675 44.1957 151.007 44.6559 150.188 44.987C149.374 45.3124 148.434 45.4752 147.368 45.4752Z" fill="white"/>
<path d="M22.5388 22.0684C20.9583 22.0684 18.5118 20.4715 15.9353 20.5292C12.5362 20.5677 9.41853 22.28 7.66483 24.9928C4.13579 30.4377 6.75551 38.4799 10.1979 42.905C11.8867 45.0599 13.8785 47.4841 16.5199 47.4071C19.053 47.3109 20.0057 45.9449 23.08 45.9449C26.1328 45.9449 26.9988 47.4071 29.6835 47.3494C32.4114 47.3109 34.1435 45.1561 35.8106 42.982C37.7375 40.4808 38.5385 38.0566 38.5818 37.9219C38.5169 37.9027 33.2774 36.1134 33.2125 30.7263C33.1692 26.2242 37.3477 24.0693 37.5426 23.9731C35.161 20.8755 31.5021 20.5292 30.2247 20.4522C26.8905 20.2213 24.0976 22.0684 22.5388 22.0684ZM28.1679 17.5278C29.5752 16.0271 30.5062 13.9299 30.2464 11.8521C28.2329 11.929 25.808 13.0449 24.3574 14.5456C23.0584 15.8732 21.9326 18.0088 22.2357 20.0482C24.4657 20.2021 26.7606 19.0285 28.1679 17.5278Z" fill="white"/>
</svg>
