<svg width="163" height="60" viewBox="0 0 163 60" fill="none" xmlns="http://www.w3.org/2000/svg">
<rect x="0.0310059" width="162.969" height="59.2614" rx="17.7784" fill="#0A060B"/>
<g clip-path="url(#clip0_1_378)">
<path d="M28.5521 37.1216C32.3091 35.1942 35.1573 33.7256 35.4028 33.6114C36.1881 33.2212 36.9991 32.1884 35.4028 31.3862C34.8874 31.134 32.1124 29.711 28.5521 27.876L23.6165 32.5331L28.5521 37.1215V37.1216Z" fill="#FFD900"/>
<path d="M23.6166 32.5337L7.90112 47.3321C8.27 47.3777 8.68645 47.2863 9.17744 47.0341C10.2083 46.507 21.136 40.9313 28.5522 37.1233L23.6166 32.5337Z" fill="#F43249"/>
<path d="M23.6166 32.5335L28.5522 27.8994C28.5522 27.8994 10.2828 18.584 9.17745 18.0341C8.761 17.8036 8.29432 17.7352 7.87671 17.8036L23.6166 32.5335Z" fill="#00EE76"/>
<path d="M23.6166 32.5336L7.87663 17.8037C7.23783 17.9417 6.698 18.469 6.698 19.5474V45.5884C6.698 46.5754 7.11572 47.2863 7.90105 47.3548L23.6166 32.5336Z" fill="#00D3FF"/>
</g>
<path d="M43.2649 15.4445C43.1723 15.1611 43.0502 14.9071 42.8987 14.6826C42.75 14.4554 42.5718 14.2618 42.3642 14.1018C42.1594 13.9419 41.9265 13.8198 41.6655 13.7356C41.4046 13.6515 41.1184 13.6094 40.8069 13.6094C40.2962 13.6094 39.8318 13.7413 39.4137 14.005C38.9957 14.2688 38.6632 14.6574 38.4162 15.1709C38.1693 15.6844 38.0458 16.3143 38.0458 17.0607C38.0458 17.8071 38.1707 18.437 38.4204 18.9505C38.6702 19.464 39.0083 19.8526 39.4348 20.1164C39.8613 20.3801 40.3411 20.512 40.8742 20.512C41.3681 20.512 41.803 20.4068 42.179 20.1963C42.5578 19.9831 42.8524 19.6828 43.0629 19.2956C43.2761 18.9056 43.3827 18.4468 43.3827 17.9193L43.7026 17.9866H41.1099V17.0607H44.3929V17.9866C44.3929 18.6965 44.2414 19.3139 43.9383 19.8386C43.6381 20.3633 43.2228 20.7701 42.6925 21.0591C42.165 21.3454 41.5589 21.4885 40.8742 21.4885C40.111 21.4885 39.4404 21.3089 38.8624 20.9497C38.2872 20.5906 37.8382 20.0799 37.5155 19.4177C37.1956 18.7555 37.0357 17.9698 37.0357 17.0607C37.0357 16.3788 37.1269 15.7657 37.3093 15.2214C37.4945 14.6742 37.7554 14.2084 38.0921 13.824C38.4289 13.4396 38.8273 13.145 39.2875 12.9402C39.7477 12.7353 40.2541 12.6329 40.8069 12.6329C41.2615 12.6329 41.6852 12.7017 42.078 12.8391C42.4736 12.9738 42.8258 13.166 43.1344 13.4158C43.4459 13.6627 43.7054 13.9587 43.9131 14.3038C44.1207 14.6462 44.2638 15.0264 44.3424 15.4445H43.2649ZM46.1806 21.3706V12.7508H51.3828V13.6767H47.2244V16.5893H51.1135V17.5152H47.2244V20.4446H51.4502V21.3706H46.1806ZM52.7928 13.6767V12.7508H59.2577V13.6767H56.5472V21.3706H55.5034V13.6767H52.7928ZM65.2459 12.7508V21.3706H64.2021V12.7508H65.2459ZM66.8674 13.6767V12.7508H73.3323V13.6767H70.6218V21.3706H69.5779V13.6767H66.8674ZM85.5497 17.0607C85.5497 17.9698 85.3856 18.7555 85.0573 19.4177C84.729 20.0799 84.2786 20.5906 83.7062 20.9497C83.1338 21.3089 82.48 21.4885 81.7448 21.4885C81.0097 21.4885 80.3559 21.3089 79.7835 20.9497C79.2111 20.5906 78.7607 20.0799 78.4324 19.4177C78.1041 18.7555 77.94 17.9698 77.94 17.0607C77.94 16.1516 78.1041 15.3659 78.4324 14.7037C78.7607 14.0415 79.2111 13.5308 79.7835 13.1717C80.3559 12.8125 81.0097 12.6329 81.7448 12.6329C82.48 12.6329 83.1338 12.8125 83.7062 13.1717C84.2786 13.5308 84.729 14.0415 85.0573 14.7037C85.3856 15.3659 85.5497 16.1516 85.5497 17.0607ZM84.5396 17.0607C84.5396 16.3143 84.4147 15.6844 84.165 15.1709C83.918 14.6574 83.5827 14.2688 83.159 14.005C82.7382 13.7413 82.2668 13.6094 81.7448 13.6094C81.2229 13.6094 80.7501 13.7413 80.3264 14.005C79.9056 14.2688 79.5702 14.6574 79.3205 15.1709C79.0736 15.6844 78.9501 16.3143 78.9501 17.0607C78.9501 17.8071 79.0736 18.437 79.3205 18.9505C79.5702 19.464 79.9056 19.8526 80.3264 20.1164C80.7501 20.3801 81.2229 20.512 81.7448 20.512C82.2668 20.512 82.7382 20.3801 83.159 20.1164C83.5827 19.8526 83.918 19.464 84.165 18.9505C84.4147 18.437 84.5396 17.8071 84.5396 17.0607ZM94.1401 12.7508V21.3706H93.1299L88.4328 14.6027H88.3486V21.3706H87.3048V12.7508H88.315L93.0289 19.5355H93.1131V12.7508H94.1401Z" fill="white"/>
<path d="M47.6422 34.2361C47.539 33.8777 47.3942 33.5609 47.2076 33.286C47.021 33.0061 46.7927 32.7704 46.5226 32.5789C46.2574 32.3824 45.953 32.2327 45.6093 32.1296C45.2704 32.0264 44.8948 31.9749 44.4823 31.9749C43.7114 31.9749 43.0338 32.1664 42.4494 32.5494C41.87 32.9324 41.4182 33.4897 41.0942 34.2214C40.7701 34.9481 40.608 35.8369 40.608 36.8877C40.608 37.9386 40.7676 38.8322 41.0868 39.5688C41.406 40.3054 41.8577 40.8676 42.4421 41.2555C43.0264 41.6385 43.7163 41.83 44.5118 41.83C45.2336 41.83 45.8499 41.7024 46.3605 41.447C46.8761 41.1868 47.269 40.821 47.539 40.3496C47.814 39.8782 47.9515 39.3208 47.9515 38.6776L48.5997 38.7733H44.7107V36.3721H51.023V38.2725C51.023 39.5983 50.7431 40.7375 50.1833 41.6901C49.6235 42.6378 48.8526 43.3694 47.8705 43.885C46.8884 44.3957 45.7639 44.6511 44.4971 44.6511C43.0829 44.6511 41.8405 44.3393 40.7701 43.7156C39.6996 43.0871 38.8648 42.1959 38.2658 41.0419C37.6716 39.8831 37.3745 38.5082 37.3745 36.9172C37.3745 35.6945 37.5513 34.6044 37.9048 33.6469C38.2633 32.6844 38.7642 31.8693 39.4074 31.2015C40.0507 30.5337 40.7995 30.0255 41.6539 29.6768C42.5083 29.3282 43.434 29.1539 44.4308 29.1539C45.2852 29.1539 46.0807 29.2791 46.8172 29.5295C47.5538 29.775 48.2069 30.1237 48.7765 30.5754C49.351 31.0272 49.8199 31.5649 50.1833 32.1885C50.5467 32.8072 50.7799 33.4897 50.883 34.2361H47.6422ZM58.4714 44.6658C57.3273 44.6658 56.3379 44.4227 55.5031 43.9366C54.6732 43.4456 54.0324 42.763 53.5807 41.889C53.1289 41.01 52.903 39.9911 52.903 38.8322C52.903 37.6636 53.1289 36.6422 53.5807 35.7682C54.0324 34.8892 54.6732 34.2067 55.5031 33.7205C56.3379 33.2295 57.3273 32.984 58.4714 32.984C59.6155 32.984 60.6025 33.2295 61.4324 33.7205C62.2672 34.2067 62.9104 34.8892 63.3622 35.7682C63.8139 36.6422 64.0398 37.6636 64.0398 38.8322C64.0398 39.9911 63.8139 41.01 63.3622 41.889C62.9104 42.763 62.2672 43.4456 61.4324 43.9366C60.6025 44.4227 59.6155 44.6658 58.4714 44.6658ZM58.4862 42.2351C59.0067 42.2351 59.4412 42.0878 59.7899 41.7932C60.1385 41.4937 60.4012 41.0861 60.578 40.5705C60.7597 40.0549 60.8505 39.4681 60.8505 38.8101C60.8505 38.1522 60.7597 37.5654 60.578 37.0498C60.4012 36.5342 60.1385 36.1266 59.7899 35.8271C59.4412 35.5275 59.0067 35.3778 58.4862 35.3778C57.9607 35.3778 57.5188 35.5275 57.1603 35.8271C56.8068 36.1266 56.5392 36.5342 56.3575 37.0498C56.1807 37.5654 56.0923 38.1522 56.0923 38.8101C56.0923 39.4681 56.1807 40.0549 56.3575 40.5705C56.5392 41.0861 56.8068 41.4937 57.1603 41.7932C57.5188 42.0878 57.9607 42.2351 58.4862 42.2351ZM71.1918 44.6658C70.0477 44.6658 69.0582 44.4227 68.2235 43.9366C67.3936 43.4456 66.7528 42.763 66.301 41.889C65.8493 41.01 65.6234 39.9911 65.6234 38.8322C65.6234 37.6636 65.8493 36.6422 66.301 35.7682C66.7528 34.8892 67.3936 34.2067 68.2235 33.7205C69.0582 33.2295 70.0477 32.984 71.1918 32.984C72.3359 32.984 73.3229 33.2295 74.1528 33.7205C74.9875 34.2067 75.6308 34.8892 76.0825 35.7682C76.5343 36.6422 76.7602 37.6636 76.7602 38.8322C76.7602 39.9911 76.5343 41.01 76.0825 41.889C75.6308 42.763 74.9875 43.4456 74.1528 43.9366C73.3229 44.4227 72.3359 44.6658 71.1918 44.6658ZM71.2065 42.2351C71.727 42.2351 72.1616 42.0878 72.5102 41.7932C72.8589 41.4937 73.1216 41.0861 73.2984 40.5705C73.48 40.0549 73.5709 39.4681 73.5709 38.8101C73.5709 38.1522 73.48 37.5654 73.2984 37.0498C73.1216 36.5342 72.8589 36.1266 72.5102 35.8271C72.1616 35.5275 71.727 35.3778 71.2065 35.3778C70.6811 35.3778 70.2392 35.5275 69.8807 35.8271C69.5272 36.1266 69.2596 36.5342 69.0779 37.0498C68.9011 37.5654 68.8127 38.1522 68.8127 38.8101C68.8127 39.4681 68.9011 40.0549 69.0779 40.5705C69.2596 41.0861 69.5272 41.4937 69.8807 41.7932C70.2392 42.0878 70.6811 42.2351 71.2065 42.2351ZM83.8974 48.9231C82.881 48.9231 82.0094 48.7832 81.2827 48.5033C80.5608 48.2283 79.9863 47.8526 79.5591 47.3763C79.1319 46.9 78.8545 46.3648 78.7268 45.7706L81.6288 45.3803C81.7172 45.6061 81.8572 45.8173 82.0487 46.0137C82.2402 46.2101 82.4931 46.3672 82.8073 46.4851C83.1265 46.6079 83.5144 46.6692 83.9711 46.6692C84.6536 46.6692 85.2159 46.5023 85.6578 46.1684C86.1047 45.8394 86.3281 45.287 86.3281 44.5111V42.4414H86.1955C86.058 42.7556 85.8518 43.0527 85.5768 43.3326C85.3018 43.6125 84.9483 43.8408 84.5162 44.0176C84.084 44.1944 83.5684 44.2828 82.9694 44.2828C82.1199 44.2828 81.3465 44.0864 80.6492 43.6935C79.9569 43.2958 79.4044 42.6894 78.992 41.8742C78.5844 41.0542 78.3806 40.0181 78.3806 38.766C78.3806 37.4843 78.5893 36.4139 79.0067 35.5546C79.4241 34.6952 79.9789 34.052 80.6713 33.6248C81.3686 33.1976 82.1322 32.984 82.962 32.984C83.5955 32.984 84.1258 33.092 84.553 33.3081C84.9802 33.5192 85.3239 33.7844 85.5842 34.1035C85.8493 34.4178 86.0531 34.7272 86.1955 35.0316H86.3134V33.1313H89.429V44.5553C89.429 45.5177 89.1933 46.323 88.7219 46.9712C88.2505 47.6194 87.5974 48.1055 86.7627 48.4296C85.9328 48.7586 84.9777 48.9231 83.8974 48.9231ZM83.9637 41.9258C84.4695 41.9258 84.8967 41.8006 85.2453 41.5501C85.5989 41.2948 85.869 40.9314 86.0556 40.46C86.2471 39.9837 86.3428 39.4141 86.3428 38.7512C86.3428 38.0883 86.2495 37.5138 86.0629 37.0277C85.8763 36.5366 85.6063 36.1561 85.2527 35.886C84.8992 35.6159 84.4695 35.4809 83.9637 35.4809C83.4481 35.4809 83.0136 35.6208 82.66 35.9007C82.3065 36.1757 82.0389 36.5587 81.8572 37.0498C81.6755 37.5408 81.5846 38.108 81.5846 38.7512C81.5846 39.4043 81.6755 39.969 81.8572 40.4453C82.0438 40.9167 82.3114 41.2825 82.66 41.5428C83.0136 41.7981 83.4481 41.9258 83.9637 41.9258ZM95.0637 29.3601V44.4448H91.9259V29.3601H95.0637ZM102.733 44.6658C101.569 44.6658 100.568 44.4301 99.7279 43.9587C98.8932 43.4824 98.2499 42.8097 97.7982 41.9405C97.3464 41.0665 97.1205 40.0328 97.1205 38.8396C97.1205 37.6758 97.3464 36.6545 97.7982 35.7755C98.2499 34.8966 98.8858 34.2116 99.7058 33.7205C100.531 33.2295 101.498 32.984 102.608 32.984C103.354 32.984 104.049 33.1043 104.692 33.3449C105.341 33.5806 105.905 33.9366 106.386 34.4129C106.873 34.8892 107.251 35.4883 107.521 36.2101C107.791 36.927 107.926 37.7667 107.926 38.7291V39.5909H98.3727V37.6464H104.972C104.972 37.1946 104.874 36.7944 104.678 36.4458C104.481 36.0972 104.209 35.8246 103.86 35.6282C103.516 35.4269 103.116 35.3262 102.659 35.3262C102.183 35.3262 101.761 35.4367 101.393 35.6577C101.029 35.8737 100.744 36.1659 100.538 36.5342C100.332 36.8975 100.226 37.3027 100.221 37.7495V39.5983C100.221 40.158 100.325 40.6417 100.531 41.0493C100.742 41.4568 101.039 41.7711 101.422 41.9921C101.805 42.213 102.259 42.3235 102.785 42.3235C103.133 42.3235 103.452 42.2744 103.742 42.1762C104.032 42.078 104.28 41.9307 104.486 41.7343C104.692 41.5379 104.849 41.2973 104.958 41.0125L107.86 41.204C107.712 41.9012 107.41 42.5101 106.954 43.0306C106.502 43.5462 105.917 43.9489 105.201 44.2386C104.489 44.5234 103.666 44.6658 102.733 44.6658ZM114.774 48.6874V33.1313H117.868V35.0316H118.007C118.145 34.7272 118.344 34.4178 118.604 34.1035C118.869 33.7844 119.213 33.5192 119.635 33.3081C120.062 33.092 120.593 32.984 121.226 32.984C122.051 32.984 122.812 33.2 123.51 33.6321C124.207 34.0593 124.764 34.7051 125.182 35.5693C125.599 36.4286 125.808 37.5064 125.808 38.8028C125.808 40.0648 125.604 41.1303 125.196 41.9994C124.794 42.8637 124.244 43.5192 123.546 43.9661C122.854 44.408 122.078 44.629 121.219 44.629C120.61 44.629 120.092 44.5283 119.665 44.327C119.242 44.1256 118.896 43.8728 118.626 43.5683C118.356 43.259 118.15 42.9472 118.007 42.6329H117.912V48.6874H114.774ZM117.845 38.7881C117.845 39.4608 117.939 40.0476 118.125 40.5484C118.312 41.0493 118.582 41.4397 118.936 41.7196C119.289 41.9945 119.719 42.132 120.225 42.132C120.735 42.132 121.167 41.9921 121.521 41.7122C121.874 41.4274 122.142 41.0346 122.324 40.5337C122.51 40.0279 122.604 39.446 122.604 38.7881C122.604 38.135 122.513 37.5605 122.331 37.0645C122.149 36.5686 121.882 36.1806 121.528 35.9007C121.175 35.6208 120.74 35.4809 120.225 35.4809C119.714 35.4809 119.282 35.6159 118.928 35.886C118.58 36.1561 118.312 36.5391 118.125 37.035C117.939 37.531 117.845 38.1153 117.845 38.7881ZM131.037 29.3601V44.4448H127.899V29.3601H131.037ZM136.777 44.6584C136.055 44.6584 135.412 44.5332 134.847 44.2828C134.282 44.0274 133.836 43.6518 133.507 43.1558C133.182 42.655 133.02 42.0314 133.02 41.285C133.02 40.6565 133.136 40.1286 133.367 39.7014C133.597 39.2742 133.912 38.9305 134.309 38.6702C134.707 38.4099 135.159 38.2135 135.665 38.081C136.175 37.9484 136.711 37.8551 137.27 37.8011C137.928 37.7323 138.459 37.6685 138.861 37.6096C139.264 37.5457 139.556 37.4524 139.738 37.3297C139.92 37.2069 140.01 37.0252 140.01 36.7846V36.7404C140.01 36.2739 139.863 35.913 139.568 35.6577C139.279 35.4023 138.866 35.2747 138.331 35.2747C137.766 35.2747 137.317 35.3999 136.983 35.6503C136.649 35.8958 136.428 36.2052 136.32 36.5784L133.418 36.3427C133.565 35.6552 133.855 35.0611 134.287 34.5602C134.719 34.0544 135.277 33.6665 135.959 33.3964C136.647 33.1215 137.442 32.984 138.346 32.984C138.974 32.984 139.576 33.0576 140.15 33.2049C140.73 33.3522 141.243 33.5806 141.69 33.8899C142.141 34.1993 142.497 34.597 142.758 35.0832C143.018 35.5644 143.148 36.1413 143.148 36.8141V44.4448H140.172V42.876H140.084C139.902 43.2295 139.659 43.5413 139.355 43.8114C139.05 44.0765 138.685 44.2852 138.257 44.4375C137.83 44.5848 137.337 44.6584 136.777 44.6584ZM137.675 42.4929C138.137 42.4929 138.545 42.4021 138.898 42.2204C139.252 42.0338 139.529 41.7834 139.73 41.4691C139.932 41.1549 140.032 40.7989 140.032 40.4011V39.2005C139.934 39.2644 139.799 39.3233 139.627 39.3773C139.46 39.4264 139.271 39.4731 139.06 39.5172C138.849 39.5565 138.638 39.5934 138.427 39.6277C138.216 39.6572 138.024 39.6842 137.852 39.7087C137.484 39.7628 137.162 39.8487 136.887 39.9665C136.612 40.0844 136.399 40.244 136.247 40.4453C136.094 40.6417 136.018 40.8872 136.018 41.1819C136.018 41.6091 136.173 41.9356 136.482 42.1615C136.797 42.3825 137.194 42.4929 137.675 42.4929ZM147.114 48.6874C146.717 48.6874 146.344 48.6555 145.995 48.5917C145.651 48.5327 145.366 48.4566 145.14 48.3633L145.848 46.0211C146.216 46.134 146.547 46.1954 146.842 46.2052C147.141 46.215 147.399 46.1463 147.615 45.999C147.836 45.8517 148.016 45.6012 148.153 45.2477L148.337 44.7689L144.279 33.1313H147.579L149.921 41.4397H150.039L152.403 33.1313H155.725L151.328 45.6675C151.116 46.2764 150.829 46.8067 150.466 47.2585C150.107 47.7151 149.653 48.0662 149.103 48.3118C148.553 48.5622 147.89 48.6874 147.114 48.6874Z" fill="white"/>
<defs>
<clipPath id="clip0_1_378">
<rect width="29.6307" height="29.6307" fill="white" transform="translate(6.698 17.7783)"/>
</clipPath>
</defs>
</svg>
