<svg width="44" height="44" viewBox="0 0 44 44" fill="none" xmlns="http://www.w3.org/2000/svg">
<g clip-path="url(#clip0_1_1215)">
<path d="M11.7607 28.2589C11.6441 28.0672 11.5397 27.8684 11.4482 27.6635C13.1852 24.1921 15.8182 21.2478 19.0748 19.1353L28.4234 34.42C28.7191 34.2673 29.0151 34.1167 29.3026 33.9409C31.6647 32.4962 33.5454 30.3834 34.7068 27.8698C35.8682 25.3562 36.2581 22.5546 35.8273 19.8194C35.3965 17.0842 34.1642 14.5382 32.2864 12.5033C30.4086 10.4684 27.9695 9.036 25.2777 8.38731C22.5858 7.73861 19.762 7.90272 17.1634 8.85887C14.5648 9.81503 12.308 11.5203 10.6786 13.759C9.04913 15.9977 8.12013 18.6694 8.00906 21.4361C7.89798 24.2028 8.60983 26.9403 10.0546 29.3025L11.7607 28.2589ZM29.086 31.6703L25.9622 26.5629C29.0452 24.5512 31.6313 21.866 33.5258 18.7097C34.1949 21.065 34.1283 23.5686 33.3348 25.885C32.5413 28.2014 31.0588 30.22 29.086 31.6703ZM32.5469 16.331C30.8101 19.8027 28.1773 22.7473 24.9207 24.8601L20.781 18.0917C24.1453 16.1551 27.966 15.1525 31.8477 15.1878C32.13 15.5373 32.3654 15.9222 32.5479 16.3327L32.5469 16.331ZM30.1764 13.2315C26.5034 13.4807 22.9348 14.5603 19.7396 16.389L16.6157 11.2815C18.8055 10.1861 21.2778 9.78592 23.7013 10.1347C26.1249 10.4834 28.384 11.5644 30.1761 13.2328L30.1764 13.2315ZM14.9096 12.3251L18.0334 17.4325C14.9505 19.4443 12.3643 22.1294 10.4698 25.2857C9.80078 22.9304 9.86751 20.4268 10.661 18.1105C11.4545 15.7941 12.9369 13.7755 14.9096 12.3251Z" fill="black"/>
<path fill-rule="evenodd" clip-rule="evenodd" d="M19.0158 34.3714L19.9185 39.6804L21.6246 38.6368L21.1485 33.067L23.2812 31.7625C23.5075 31.6242 23.6695 31.4016 23.7316 31.1437C23.7938 30.8859 23.7509 30.6139 23.6126 30.3877C23.4742 30.1614 23.2516 29.9994 22.9937 29.9373C22.7359 29.8751 22.4639 29.918 22.2377 30.0564L20.105 31.3608L15.3634 28.3998L13.6572 29.4433L17.9723 32.6652L14.9865 34.4914L12.6633 33.5679L11.8102 34.0897L14.2286 36.1271L14.9408 39.2082L15.7939 38.6864L16.03 36.1976L19.0158 34.3714Z" fill="black"/>
</g>
<defs>
<clipPath id="clip0_1_1215">
<rect width="32" height="32" fill="white" transform="translate(27.2988) rotate(58.549)"/>
</clipPath>
</defs>
</svg>
