<svg width="32" height="31" viewBox="0 0 32 31" fill="none" xmlns="http://www.w3.org/2000/svg">
<path fill-rule="evenodd" clip-rule="evenodd" d="M9.65144 0.265784C11.2862 0.190854 11.8073 0.173828 15.97 0.173828C20.1335 0.173828 20.6537 0.191704 22.2876 0.265784C23.9198 0.339864 25.0345 0.599555 26.0093 0.978441C27.0319 1.36341 27.9581 1.9666 28.7237 2.74604C29.5032 3.51154 30.1065 4.43787 30.4913 5.46043C30.8702 6.43533 31.129 7.54988 31.204 9.18123C31.279 10.816 31.296 11.3371 31.296 15.4998C31.296 19.6625 31.2781 20.1835 31.204 21.8184C31.1299 23.4496 30.8702 24.5642 30.4913 25.5391C30.0997 26.5465 29.5751 27.4021 28.7237 28.2535C27.9582 29.033 27.0319 29.6363 26.0093 30.0211C25.0345 30.4 23.9198 30.6588 22.2886 30.7338C20.6537 30.8087 20.1327 30.8257 15.97 30.8257C11.8073 30.8257 11.2862 30.8079 9.65144 30.7338C8.02009 30.6597 6.90555 30.4 5.93065 30.0211C4.92338 29.6295 4.06769 29.1049 3.21625 28.2535C2.43668 27.488 1.83345 26.5616 1.44866 25.5391C1.06977 24.5642 0.810929 23.4496 0.735999 21.8184C0.661069 20.1835 0.644043 19.6633 0.644043 15.4998C0.644043 11.3362 0.661919 10.816 0.735999 9.18209C0.810079 7.54988 1.06977 6.43533 1.44866 5.46043C1.83363 4.43794 2.43682 3.51165 3.21625 2.74604C3.98174 1.96646 4.90807 1.36323 5.93065 0.978441C6.90555 0.599555 8.02009 0.340714 9.65144 0.265784ZM22.1634 3.02446C20.5473 2.95123 20.062 2.93505 15.97 2.93505C11.878 2.93505 11.3927 2.95123 9.77661 3.02446C8.28233 3.09257 7.47091 3.34204 6.93108 3.55235C6.21588 3.82992 5.70501 4.16198 5.1686 4.69838C4.63305 5.23479 4.30013 5.74566 4.02257 6.46087C3.81225 7.00069 3.56279 7.81212 3.49467 9.3064C3.42144 10.9224 3.40526 11.4078 3.40526 15.4998C3.40526 19.5918 3.42144 20.0771 3.49467 21.6931C3.56279 23.1874 3.81225 23.9989 4.02257 24.5388C4.26809 25.2045 4.65971 25.8066 5.1686 26.3012C5.66307 26.8101 6.26534 27.2017 6.93108 27.4472C7.47091 27.6576 8.28233 27.907 9.77661 27.9751C11.3927 28.0484 11.8771 28.0646 15.97 28.0646C20.0629 28.0646 20.5473 28.0484 22.1634 27.9751C23.6576 27.907 24.4691 27.6576 25.009 27.4472C25.7241 27.1697 26.235 26.8376 26.7715 26.3012C27.2803 25.8068 27.6719 25.2045 27.9174 24.5388C28.1278 23.9989 28.3772 23.1874 28.4453 21.6931C28.5186 20.0771 28.5348 19.5918 28.5348 15.4998C28.5348 11.4078 28.5186 10.9224 28.4453 9.3064C28.3772 7.81212 28.1278 7.00069 27.9174 6.46087C27.6399 5.74566 27.3079 5.23479 26.7715 4.69838C26.235 4.16284 25.7241 3.82992 25.009 3.55235C24.4691 3.34204 23.6576 3.09257 22.1634 3.02446ZM14.0132 20.2242C14.6336 20.4813 15.2984 20.6135 15.97 20.6135C17.3263 20.6135 18.627 20.0747 19.5859 19.1157C20.5451 18.1567 21.0839 16.856 21.0839 15.4998C21.0839 14.1436 20.5451 12.8428 19.5859 11.8838C18.627 10.9248 17.3263 10.386 15.97 10.386C15.2984 10.386 14.6336 10.5183 14.0132 10.7753C13.3926 11.0323 12.8289 11.4089 12.3541 11.8838C11.8792 12.3587 11.5025 12.9224 11.2455 13.5428C10.9885 14.1632 10.8563 14.8282 10.8563 15.4998C10.8563 16.1713 10.9885 16.8363 11.2455 17.4568C11.5025 18.0772 11.8792 18.6409 12.3541 19.1157C12.8289 19.5906 13.3926 19.9673 14.0132 20.2242ZM10.3998 9.92951C11.8771 8.45218 13.8808 7.62223 15.97 7.62223C18.0593 7.62223 20.063 8.45218 21.5403 9.92951C23.0176 11.4068 23.8475 13.4106 23.8475 15.4998C23.8475 17.589 23.0176 19.5926 21.5403 21.0701C20.063 22.5474 18.0593 23.3773 15.97 23.3773C13.8808 23.3773 11.8771 22.5474 10.3998 21.0701C8.92245 19.5926 8.0925 17.589 8.0925 15.4998C8.0925 13.4106 8.92245 11.4068 10.3998 9.92951ZM25.5943 8.7959C25.9434 8.44668 26.1396 7.97305 26.1396 7.4792C26.1396 6.98532 25.9434 6.51169 25.5943 6.16249C25.245 5.81328 24.7714 5.61709 24.2775 5.61709C23.7837 5.61709 23.31 5.81328 22.9609 6.16249C22.6116 6.51169 22.4154 6.98532 22.4154 7.4792C22.4154 7.97305 22.6116 8.44668 22.9609 8.7959C23.31 9.14511 23.7837 9.3413 24.2775 9.3413C24.7714 9.3413 25.245 9.14511 25.5943 8.7959Z" fill="white"/>
</svg>
