<svg width="668" height="288" viewBox="0 0 668 288" fill="none" xmlns="http://www.w3.org/2000/svg">
<path d="M42.3125 49.6562C43.6458 50.5729 44.7292 51.7292 45.5625 53.125C46.3958 54.5 46.8125 56.125 46.8125 58C46.8125 60.25 46.3333 62.1562 45.375 63.7188C44.4375 65.2604 43.0833 66.4792 41.3125 67.375C39.4375 68.3333 37.2708 69.0104 34.8125 69.4062C32.375 69.8021 29.5 70 26.1875 70H3.15625V67.5625C3.80208 67.5 4.61458 67.4062 5.59375 67.2812C6.57292 67.1562 7.26042 67.0104 7.65625 66.8438C8.42708 66.5312 8.94792 66.125 9.21875 65.625C9.51042 65.1042 9.65625 64.4375 9.65625 63.625V32.375C9.65625 31.625 9.54167 31 9.3125 30.5C9.08333 30 8.53125 29.5625 7.65625 29.1875C7.01042 28.9167 6.26042 28.6979 5.40625 28.5312C4.55208 28.3438 3.80208 28.1979 3.15625 28.0938V25.6562H27.25C33.3125 25.6562 37.6875 26.4896 40.375 28.1562C43.0625 29.8229 44.4062 32.2812 44.4062 35.5312C44.4062 37.0312 44.1042 38.3542 43.5 39.5C42.8958 40.625 42.0312 41.6042 40.9062 42.4375C39.8854 43.2083 38.6667 43.875 37.25 44.4375C35.8333 45 34.3125 45.4688 32.6875 45.8438V46.4375C34.3125 46.6042 36 46.9688 37.75 47.5312C39.5 48.0729 41.0208 48.7812 42.3125 49.6562ZM32.25 36.3125C32.25 33.8542 31.5521 31.9375 30.1562 30.5625C28.7812 29.1875 26.7083 28.5 23.9375 28.5C23.5417 28.5 23.0208 28.5208 22.375 28.5625C21.75 28.5833 21.2083 28.6042 20.75 28.625V45.0625H22.375C25.75 45.0625 28.2396 44.2812 29.8438 42.7188C31.4479 41.1354 32.25 39 32.25 36.3125ZM34.4375 57.5938C34.4375 54.5104 33.5208 52.1458 31.6875 50.5C29.8542 48.8542 27.2188 48.0312 23.7812 48.0312C23.3854 48.0312 22.8542 48.0521 22.1875 48.0938C21.5417 48.1146 21.0625 48.1354 20.75 48.1562V64.375C20.9375 65.1458 21.5208 65.8021 22.5 66.3438C23.4792 66.8646 24.6667 67.125 26.0625 67.125C28.5417 67.125 30.5521 66.2917 32.0938 64.625C33.6562 62.9583 34.4375 60.6146 34.4375 57.5938ZM82.4375 44.7188C82.4375 46.3021 81.9479 47.6979 80.9688 48.9062C79.9896 50.0938 78.6979 50.6875 77.0938 50.6875C75.5729 50.6875 74.2812 50.3021 73.2188 49.5312C72.1771 48.7604 71.6562 47.625 71.6562 46.125C71.6562 45.3958 71.7083 44.8333 71.8125 44.4375C71.9167 44.0208 72.0104 43.6354 72.0938 43.2812C71.1354 43.3229 70.125 43.6562 69.0625 44.2812C68 44.9062 67.0625 45.7396 66.25 46.7812V63.9375C66.25 64.6667 66.3646 65.2708 66.5938 65.75C66.8229 66.2292 67.2083 66.6042 67.75 66.875C68.2083 67.1042 68.9479 67.3021 69.9688 67.4688C71.0104 67.6146 71.7604 67.6979 72.2188 67.7188V70H51.3125V67.7188C51.8333 67.6771 52.3542 67.625 52.875 67.5625C53.4167 67.4792 53.875 67.375 54.25 67.25C54.9167 67.0208 55.375 66.6667 55.625 66.1875C55.875 65.7083 56 65.0833 56 64.3125V46.125C56 45.375 55.8229 44.7083 55.4688 44.125C55.1146 43.5208 54.6875 43.0417 54.1875 42.6875C53.8125 42.4375 53.3333 42.2292 52.75 42.0625C52.1875 41.8958 51.5625 41.7812 50.875 41.7188V39.4375L65.7812 38.625L66.25 39.0938V43.625H66.375C67.8125 41.9583 69.3333 40.6562 70.9375 39.7188C72.5625 38.7604 74.25 38.2812 76 38.2812C77.9375 38.2812 79.4896 38.8854 80.6562 40.0938C81.8438 41.2812 82.4375 42.8229 82.4375 44.7188ZM104.375 70H84.625V67.7188C85.1667 67.6771 85.6979 67.625 86.2188 67.5625C86.7396 67.5 87.1875 67.3958 87.5625 67.25C88.2292 67 88.6979 66.6458 88.9688 66.1875C89.2396 65.7083 89.375 65.0833 89.375 64.3125V46.125C89.375 45.3958 89.2083 44.7604 88.875 44.2188C88.5417 43.6562 88.125 43.2083 87.625 42.875C87.25 42.625 86.6771 42.3854 85.9062 42.1562C85.1562 41.9271 84.4688 41.7812 83.8438 41.7188V39.4375L99.1562 38.625L99.625 39.0938V63.9062C99.625 64.6354 99.7812 65.2604 100.094 65.7812C100.406 66.2812 100.854 66.6562 101.438 66.9062C101.854 67.0938 102.312 67.2604 102.812 67.4062C103.312 67.5521 103.833 67.6562 104.375 67.7188V70ZM99.8125 27.375C99.8125 28.9583 99.1979 30.3125 97.9688 31.4375C96.7604 32.5417 95.3229 33.0938 93.6562 33.0938C91.9688 33.0938 90.5104 32.5417 89.2812 31.4375C88.0729 30.3125 87.4688 28.9583 87.4688 27.375C87.4688 25.7917 88.0729 24.4375 89.2812 23.3125C90.5104 22.1875 91.9688 21.625 93.6562 21.625C95.3438 21.625 96.7917 22.1875 98 23.3125C99.2083 24.4375 99.8125 25.7917 99.8125 27.375ZM148.5 70H129.688V67.7188C130.083 67.6771 130.562 67.625 131.125 67.5625C131.688 67.5 132.115 67.3958 132.406 67.25C132.844 67.0208 133.156 66.6875 133.344 66.25C133.531 65.8125 133.625 65.1667 133.625 64.3125V49.6875C133.625 47.5625 133.229 45.9688 132.438 44.9062C131.667 43.8229 130.521 43.2812 129 43.2812C128.167 43.2812 127.385 43.4062 126.656 43.6562C125.948 43.9062 125.25 44.2708 124.562 44.75C123.958 45.1667 123.469 45.5938 123.094 46.0312C122.74 46.4688 122.438 46.8542 122.188 47.1875V63.9688C122.188 64.6979 122.292 65.3125 122.5 65.8125C122.708 66.2917 123.052 66.6562 123.531 66.9062C123.865 67.0938 124.281 67.2604 124.781 67.4062C125.281 67.5521 125.771 67.6562 126.25 67.7188V70H107.25V67.7188C107.771 67.6771 108.292 67.625 108.812 67.5625C109.354 67.4792 109.812 67.375 110.188 67.25C110.854 67.0208 111.312 66.6667 111.562 66.1875C111.812 65.7083 111.938 65.0833 111.938 64.3125V46.125C111.938 45.4792 111.771 44.8438 111.438 44.2188C111.104 43.5938 110.667 43.0833 110.125 42.6875C109.75 42.4375 109.271 42.2292 108.688 42.0625C108.125 41.8958 107.5 41.7812 106.812 41.7188V39.4375L121.719 38.625L122.188 39.0938V43.625H122.312C122.896 43.1042 123.604 42.4792 124.438 41.75C125.271 41.0208 126.042 40.4271 126.75 39.9688C127.521 39.4688 128.531 39.0417 129.781 38.6875C131.031 38.3333 132.365 38.1562 133.781 38.1562C137.177 38.1562 139.719 39.125 141.406 41.0625C143.115 42.9792 143.969 45.5312 143.969 48.7188V64.0312C143.969 64.8021 144.083 65.4167 144.312 65.875C144.542 66.3333 144.969 66.6979 145.594 66.9688C145.927 67.1146 146.333 67.2604 146.812 67.4062C147.312 67.5521 147.875 67.6562 148.5 67.7188V70ZM186.438 42.5H179.562C180.375 43.4167 180.979 44.3854 181.375 45.4062C181.792 46.4271 182 47.4896 182 48.5938C182 50.0312 181.615 51.3854 180.844 52.6562C180.073 53.9062 179.062 54.9271 177.812 55.7188C176.542 56.5312 175.052 57.1667 173.344 57.625C171.635 58.0833 169.781 58.3125 167.781 58.3125H162.688C162.438 58.5 162.156 58.8021 161.844 59.2188C161.552 59.6146 161.406 60 161.406 60.375C161.406 61.2917 161.771 61.9271 162.5 62.2812C163.229 62.6354 164.552 62.8333 166.469 62.875C168.365 62.9167 170.281 63 172.219 63.125C174.156 63.2292 175.542 63.2917 176.375 63.3125C177.583 63.375 178.781 63.625 179.969 64.0625C181.156 64.4792 182.188 65.0312 183.062 65.7188C184.021 66.4479 184.812 67.3854 185.438 68.5312C186.062 69.6562 186.375 70.9583 186.375 72.4375C186.375 74.0208 185.99 75.5104 185.219 76.9062C184.469 78.3021 183.312 79.5104 181.75 80.5312C180.104 81.5938 178.125 82.4167 175.812 83C173.521 83.5833 170.677 83.875 167.281 83.875C161.802 83.875 157.635 83.2083 154.781 81.875C151.927 80.5417 150.5 78.5417 150.5 75.875C150.5 74.2292 151.271 72.875 152.812 71.8125C154.354 70.75 156.75 70.1667 160 70.0625V69.6875C158.083 69.0417 156.583 68.1875 155.5 67.125C154.438 66.0417 153.906 64.7917 153.906 63.375C153.906 62.5 154.115 61.7604 154.531 61.1562C154.969 60.5521 155.521 60.0208 156.188 59.5625C156.771 59.1667 157.479 58.8333 158.312 58.5625C159.146 58.2708 159.844 58.0417 160.406 57.875V57.5312C157.594 56.4896 155.521 55.2188 154.188 53.7188C152.875 52.2188 152.219 50.3854 152.219 48.2188C152.219 45.1562 153.625 42.7083 156.438 40.875C159.271 39.0417 162.854 38.125 167.188 38.125C168.604 38.125 169.969 38.25 171.281 38.5C172.615 38.7292 173.625 38.9375 174.312 39.125H186.438V42.5ZM171.781 48.4688C171.781 46.0312 171.396 44.1042 170.625 42.6875C169.854 41.2708 168.667 40.5625 167.062 40.5625C166.25 40.5625 165.542 40.7604 164.938 41.1562C164.333 41.5312 163.844 42.0833 163.469 42.8125C163.115 43.5208 162.875 44.3542 162.75 45.3125C162.625 46.25 162.562 47.2188 162.562 48.2188C162.562 50.4896 162.958 52.3542 163.75 53.8125C164.542 55.2708 165.667 56 167.125 56C168.625 56 169.771 55.3438 170.562 54.0312C171.375 52.7188 171.781 50.8646 171.781 48.4688ZM177.031 74.7188C177.031 74.0104 176.833 73.3021 176.438 72.5938C176.042 71.9062 175.156 71.3438 173.781 70.9062C173.031 70.7812 171.792 70.6979 170.062 70.6562C168.354 70.6146 166 70.5938 163 70.5938C162.271 71.2188 161.656 71.9583 161.156 72.8125C160.677 73.6667 160.438 74.6979 160.438 75.9062C160.438 76.4271 160.583 77 160.875 77.625C161.167 78.25 161.625 78.8333 162.25 79.375C162.979 79.9792 163.792 80.4479 164.688 80.7812C165.583 81.1354 166.938 81.3125 168.75 81.3125C171.438 81.3125 173.49 80.7917 174.906 79.75C176.323 78.7083 177.031 77.0312 177.031 74.7188ZM208.125 70H188.375V67.7188C188.917 67.6771 189.448 67.625 189.969 67.5625C190.49 67.5 190.938 67.3958 191.312 67.25C191.979 67 192.448 66.6458 192.719 66.1875C192.99 65.7083 193.125 65.0833 193.125 64.3125V46.125C193.125 45.3958 192.958 44.7604 192.625 44.2188C192.292 43.6562 191.875 43.2083 191.375 42.875C191 42.625 190.427 42.3854 189.656 42.1562C188.906 41.9271 188.219 41.7812 187.594 41.7188V39.4375L202.906 38.625L203.375 39.0938V63.9062C203.375 64.6354 203.531 65.2604 203.844 65.7812C204.156 66.2812 204.604 66.6562 205.188 66.9062C205.604 67.0938 206.062 67.2604 206.562 67.4062C207.062 67.5521 207.583 67.6562 208.125 67.7188V70ZM203.562 27.375C203.562 28.9583 202.948 30.3125 201.719 31.4375C200.51 32.5417 199.073 33.0938 197.406 33.0938C195.719 33.0938 194.26 32.5417 193.031 31.4375C191.823 30.3125 191.219 28.9583 191.219 27.375C191.219 25.7917 191.823 24.4375 193.031 23.3125C194.26 22.1875 195.719 21.625 197.406 21.625C199.094 21.625 200.542 22.1875 201.75 23.3125C202.958 24.4375 203.562 25.7917 203.562 27.375ZM252.25 70H233.438V67.7188C233.833 67.6771 234.312 67.625 234.875 67.5625C235.438 67.5 235.865 67.3958 236.156 67.25C236.594 67.0208 236.906 66.6875 237.094 66.25C237.281 65.8125 237.375 65.1667 237.375 64.3125V49.6875C237.375 47.5625 236.979 45.9688 236.188 44.9062C235.417 43.8229 234.271 43.2812 232.75 43.2812C231.917 43.2812 231.135 43.4062 230.406 43.6562C229.698 43.9062 229 44.2708 228.312 44.75C227.708 45.1667 227.219 45.5938 226.844 46.0312C226.49 46.4688 226.188 46.8542 225.938 47.1875V63.9688C225.938 64.6979 226.042 65.3125 226.25 65.8125C226.458 66.2917 226.802 66.6562 227.281 66.9062C227.615 67.0938 228.031 67.2604 228.531 67.4062C229.031 67.5521 229.521 67.6562 230 67.7188V70H211V67.7188C211.521 67.6771 212.042 67.625 212.562 67.5625C213.104 67.4792 213.562 67.375 213.938 67.25C214.604 67.0208 215.062 66.6667 215.312 66.1875C215.562 65.7083 215.688 65.0833 215.688 64.3125V46.125C215.688 45.4792 215.521 44.8438 215.188 44.2188C214.854 43.5938 214.417 43.0833 213.875 42.6875C213.5 42.4375 213.021 42.2292 212.438 42.0625C211.875 41.8958 211.25 41.7812 210.562 41.7188V39.4375L225.469 38.625L225.938 39.0938V43.625H226.062C226.646 43.1042 227.354 42.4792 228.188 41.75C229.021 41.0208 229.792 40.4271 230.5 39.9688C231.271 39.4688 232.281 39.0417 233.531 38.6875C234.781 38.3333 236.115 38.1562 237.531 38.1562C240.927 38.1562 243.469 39.125 245.156 41.0625C246.865 42.9792 247.719 45.5312 247.719 48.7188V64.0312C247.719 64.8021 247.833 65.4167 248.062 65.875C248.292 66.3333 248.719 66.6979 249.344 66.9688C249.677 67.1146 250.083 67.2604 250.562 67.4062C251.062 67.5521 251.625 67.6562 252.25 67.7188V70ZM290.188 42.5H283.312C284.125 43.4167 284.729 44.3854 285.125 45.4062C285.542 46.4271 285.75 47.4896 285.75 48.5938C285.75 50.0312 285.365 51.3854 284.594 52.6562C283.823 53.9062 282.812 54.9271 281.562 55.7188C280.292 56.5312 278.802 57.1667 277.094 57.625C275.385 58.0833 273.531 58.3125 271.531 58.3125H266.438C266.188 58.5 265.906 58.8021 265.594 59.2188C265.302 59.6146 265.156 60 265.156 60.375C265.156 61.2917 265.521 61.9271 266.25 62.2812C266.979 62.6354 268.302 62.8333 270.219 62.875C272.115 62.9167 274.031 63 275.969 63.125C277.906 63.2292 279.292 63.2917 280.125 63.3125C281.333 63.375 282.531 63.625 283.719 64.0625C284.906 64.4792 285.938 65.0312 286.812 65.7188C287.771 66.4479 288.562 67.3854 289.188 68.5312C289.812 69.6562 290.125 70.9583 290.125 72.4375C290.125 74.0208 289.74 75.5104 288.969 76.9062C288.219 78.3021 287.062 79.5104 285.5 80.5312C283.854 81.5938 281.875 82.4167 279.562 83C277.271 83.5833 274.427 83.875 271.031 83.875C265.552 83.875 261.385 83.2083 258.531 81.875C255.677 80.5417 254.25 78.5417 254.25 75.875C254.25 74.2292 255.021 72.875 256.562 71.8125C258.104 70.75 260.5 70.1667 263.75 70.0625V69.6875C261.833 69.0417 260.333 68.1875 259.25 67.125C258.188 66.0417 257.656 64.7917 257.656 63.375C257.656 62.5 257.865 61.7604 258.281 61.1562C258.719 60.5521 259.271 60.0208 259.938 59.5625C260.521 59.1667 261.229 58.8333 262.062 58.5625C262.896 58.2708 263.594 58.0417 264.156 57.875V57.5312C261.344 56.4896 259.271 55.2188 257.938 53.7188C256.625 52.2188 255.969 50.3854 255.969 48.2188C255.969 45.1562 257.375 42.7083 260.188 40.875C263.021 39.0417 266.604 38.125 270.938 38.125C272.354 38.125 273.719 38.25 275.031 38.5C276.365 38.7292 277.375 38.9375 278.062 39.125H290.188V42.5ZM275.531 48.4688C275.531 46.0312 275.146 44.1042 274.375 42.6875C273.604 41.2708 272.417 40.5625 270.812 40.5625C270 40.5625 269.292 40.7604 268.688 41.1562C268.083 41.5312 267.594 42.0833 267.219 42.8125C266.865 43.5208 266.625 44.3542 266.5 45.3125C266.375 46.25 266.312 47.2188 266.312 48.2188C266.312 50.4896 266.708 52.3542 267.5 53.8125C268.292 55.2708 269.417 56 270.875 56C272.375 56 273.521 55.3438 274.312 54.0312C275.125 52.7188 275.531 50.8646 275.531 48.4688ZM280.781 74.7188C280.781 74.0104 280.583 73.3021 280.188 72.5938C279.792 71.9062 278.906 71.3438 277.531 70.9062C276.781 70.7812 275.542 70.6979 273.812 70.6562C272.104 70.6146 269.75 70.5938 266.75 70.5938C266.021 71.2188 265.406 71.9583 264.906 72.8125C264.427 73.6667 264.188 74.6979 264.188 75.9062C264.188 76.4271 264.333 77 264.625 77.625C264.917 78.25 265.375 78.8333 266 79.375C266.729 79.9792 267.542 80.4479 268.438 80.7812C269.333 81.1354 270.688 81.3125 272.5 81.3125C275.188 81.3125 277.24 80.7917 278.656 79.75C280.073 78.7083 280.781 77.0312 280.781 74.7188ZM348.031 36.9688H345.656C345.052 35.2812 344.01 33.5729 342.531 31.8438C341.052 30.1146 339.583 29.0938 338.125 28.7812C337.5 28.6354 336.625 28.5521 335.5 28.5312C334.396 28.4896 333.479 28.4688 332.75 28.4688H326.312V45.5938H330.875C332.021 45.5938 333.062 45.4583 334 45.1875C334.938 44.9167 335.792 44.3958 336.562 43.625C337.042 43.1458 337.521 42.3021 338 41.0938C338.5 39.8854 338.823 38.8333 338.969 37.9375H341.344V56.4375H338.969C338.844 55.5625 338.521 54.4688 338 53.1562C337.5 51.8229 337.021 50.9062 336.562 50.4062C335.875 49.6562 335.062 49.1458 334.125 48.875C333.188 48.5833 332.104 48.4375 330.875 48.4375H326.312V61.2188C326.312 62.5521 326.406 63.6146 326.594 64.4062C326.802 65.1771 327.177 65.7708 327.719 66.1875C328.24 66.5833 328.948 66.8438 329.844 66.9688C330.76 67.0938 332 67.1562 333.562 67.1562C334.292 67.1562 335.167 67.1458 336.188 67.125C337.208 67.1042 338.104 67.0417 338.875 66.9375C339.75 66.8333 340.562 66.6771 341.312 66.4688C342.083 66.2604 342.656 65.9583 343.031 65.5625C344.031 64.5417 345.156 62.9896 346.406 60.9062C347.656 58.8021 348.479 57.2292 348.875 56.1875H351.156L350.312 70H308.719V67.5625C309.302 67.5208 310.094 67.4375 311.094 67.3125C312.094 67.1875 312.802 67.0417 313.219 66.875C314.01 66.5417 314.542 66.125 314.812 65.625C315.083 65.1042 315.219 64.4479 315.219 63.6562V32.375C315.219 31.625 315.104 31.0104 314.875 30.5312C314.646 30.0312 314.094 29.5833 313.219 29.1875C312.677 28.9375 311.917 28.7083 310.938 28.5C309.958 28.2917 309.219 28.1562 308.719 28.0938V25.6562H348.031V36.9688ZM390.188 41.2812C389.25 41.4271 388.333 41.7812 387.438 42.3438C386.562 42.9062 385.833 43.7812 385.25 44.9688C383.792 48.0104 382.354 51.0833 380.938 54.1875C379.542 57.2708 378.167 60.2604 376.812 63.1562C376.396 64.0312 375.917 65.1562 375.375 66.5312C374.854 67.9062 374.417 69.1562 374.062 70.2812H368.312C365.917 64.7188 363.865 60.1042 362.156 56.4375C360.469 52.7708 358.677 48.8333 356.781 44.625C356.344 43.6458 355.656 42.875 354.719 42.3125C353.802 41.75 352.865 41.4062 351.906 41.2812V39H371.156V41.2812C370.448 41.3021 369.615 41.4583 368.656 41.75C367.698 42.0417 367.219 42.4167 367.219 42.875C367.219 43 367.26 43.1875 367.344 43.4375C367.427 43.6875 367.531 43.9688 367.656 44.2812C368.323 45.8646 369.323 48.1458 370.656 51.125C372.01 54.1042 373.438 57.2396 374.938 60.5312C375.979 58.2604 376.969 56.0417 377.906 53.875C378.865 51.6875 380.042 48.9062 381.438 45.5312C381.625 45.0312 381.729 44.625 381.75 44.3125C381.792 44 381.812 43.7917 381.812 43.6875C381.812 43.3125 381.625 42.9896 381.25 42.7188C380.896 42.4271 380.469 42.1771 379.969 41.9688C379.448 41.7604 378.948 41.6042 378.469 41.5C377.99 41.3958 377.594 41.3229 377.281 41.2812V39H390.188V41.2812ZM424.469 62.5312C423.74 63.7188 422.854 64.8438 421.812 65.9062C420.792 66.9479 419.625 67.8438 418.312 68.5938C416.917 69.3854 415.5 69.9792 414.062 70.375C412.646 70.7917 411.01 71 409.156 71C406.073 71 403.406 70.5625 401.156 69.6875C398.927 68.8125 397.083 67.6354 395.625 66.1562C394.167 64.6771 393.073 62.9375 392.344 60.9375C391.635 58.9167 391.281 56.7292 391.281 54.375C391.281 52.25 391.667 50.2188 392.438 48.2812C393.229 46.3229 394.344 44.5833 395.781 43.0625C397.198 41.5833 398.979 40.3854 401.125 39.4688C403.292 38.5521 405.708 38.0938 408.375 38.0938C411.292 38.0938 413.688 38.4479 415.562 39.1562C417.438 39.8646 418.99 40.8438 420.219 42.0938C421.406 43.2812 422.271 44.6875 422.812 46.3125C423.354 47.9167 423.625 49.6042 423.625 51.375V53.4062H402.5C402.5 57.6771 403.323 60.9271 404.969 63.1562C406.615 65.3854 409.229 66.5 412.812 66.5C414.771 66.5 416.531 65.9688 418.094 64.9062C419.656 63.8229 420.99 62.4583 422.094 60.8125L424.469 62.5312ZM412.531 50.6562C412.531 49.4062 412.469 48.125 412.344 46.8125C412.219 45.5 412 44.4271 411.688 43.5938C411.333 42.6146 410.844 41.875 410.219 41.375C409.615 40.875 408.844 40.625 407.906 40.625C406.302 40.625 405.021 41.4375 404.062 43.0625C403.104 44.6875 402.583 47.2604 402.5 50.7812L412.531 50.6562ZM458.625 44.7188C458.625 46.3021 458.135 47.6979 457.156 48.9062C456.177 50.0938 454.885 50.6875 453.281 50.6875C451.76 50.6875 450.469 50.3021 449.406 49.5312C448.365 48.7604 447.844 47.625 447.844 46.125C447.844 45.3958 447.896 44.8333 448 44.4375C448.104 44.0208 448.198 43.6354 448.281 43.2812C447.323 43.3229 446.312 43.6562 445.25 44.2812C444.188 44.9062 443.25 45.7396 442.438 46.7812V63.9375C442.438 64.6667 442.552 65.2708 442.781 65.75C443.01 66.2292 443.396 66.6042 443.938 66.875C444.396 67.1042 445.135 67.3021 446.156 67.4688C447.198 67.6146 447.948 67.6979 448.406 67.7188V70H427.5V67.7188C428.021 67.6771 428.542 67.625 429.062 67.5625C429.604 67.4792 430.062 67.375 430.438 67.25C431.104 67.0208 431.562 66.6667 431.812 66.1875C432.062 65.7083 432.188 65.0833 432.188 64.3125V46.125C432.188 45.375 432.01 44.7083 431.656 44.125C431.302 43.5208 430.875 43.0417 430.375 42.6875C430 42.4375 429.521 42.2292 428.938 42.0625C428.375 41.8958 427.75 41.7812 427.062 41.7188V39.4375L441.969 38.625L442.438 39.0938V43.625H442.562C444 41.9583 445.521 40.6562 447.125 39.7188C448.75 38.7604 450.438 38.2812 452.188 38.2812C454.125 38.2812 455.677 38.8854 456.844 40.0938C458.031 41.2812 458.625 42.8229 458.625 44.7188ZM496.125 41.2812C495.188 41.4271 494.271 41.7812 493.375 42.3438C492.5 42.9062 491.771 43.7812 491.188 44.9688C489.396 48.7604 487.552 52.8021 485.656 57.0938C483.76 61.3646 481.656 65.9896 479.344 70.9688C478.052 73.7604 476.802 75.9896 475.594 77.6562C474.385 79.3229 473.25 80.6042 472.188 81.5C471.188 82.3333 470.198 82.9375 469.219 83.3125C468.24 83.6875 467.25 83.875 466.25 83.875C464.271 83.875 462.667 83.3229 461.438 82.2188C460.229 81.1146 459.625 79.875 459.625 78.5C459.625 77.9167 459.688 77.375 459.812 76.875C459.958 76.375 460.25 75.8542 460.688 75.3125C461.021 74.8542 461.531 74.4583 462.219 74.125C462.927 73.8125 463.719 73.6562 464.594 73.6562C465.76 73.6562 466.875 74.0625 467.938 74.875C469 75.6875 470.104 76.8125 471.25 78.25C471.938 77.5625 472.781 76.5312 473.781 75.1562C474.802 73.8021 475.552 72.4062 476.031 70.9688C473.552 65.7604 471.354 61.25 469.438 57.4375C467.521 53.6042 465.375 49.3333 463 44.625C462.479 43.625 461.781 42.8542 460.906 42.3125C460.031 41.75 459.104 41.4062 458.125 41.2812V39H477.25V41.2812C476.542 41.3021 475.719 41.4583 474.781 41.75C473.865 42.0417 473.406 42.4167 473.406 42.875C473.406 43.0417 473.438 43.2292 473.5 43.4375C473.562 43.625 473.677 43.9062 473.844 44.2812C474.552 45.7396 475.552 47.7708 476.844 50.375C478.156 52.9583 479.677 55.9896 481.406 59.4688C482.698 56.5104 483.792 53.9688 484.688 51.8438C485.604 49.6979 486.49 47.5938 487.344 45.5312C487.552 45.0104 487.667 44.6042 487.688 44.3125C487.729 44 487.75 43.7917 487.75 43.6875C487.75 43.3125 487.562 42.9896 487.188 42.7188C486.833 42.4271 486.406 42.1771 485.906 41.9688C485.385 41.7604 484.885 41.6042 484.406 41.5C483.927 41.3958 483.531 41.3229 483.219 41.2812V39H496.125V41.2812ZM520.062 68.5625C518.729 69.1458 517.302 69.6667 515.781 70.125C514.26 70.6042 512.406 70.8438 510.219 70.8438C506.969 70.8438 504.552 70.0521 502.969 68.4688C501.406 66.8854 500.625 64.625 500.625 61.6875V42.5H495V39.125H500.75V29.6562H510.906V39.125H519.656V42.5H510.969V59.625C510.969 62.0625 511.302 63.7917 511.969 64.8125C512.656 65.8333 513.875 66.3438 515.625 66.3438C516.188 66.3438 516.969 66.3021 517.969 66.2188C518.969 66.1354 519.667 66.0417 520.062 65.9375V68.5625ZM562.875 70H544.062V67.7188C544.479 67.6771 544.969 67.625 545.531 67.5625C546.094 67.5 546.51 67.3958 546.781 67.25C547.219 67.0208 547.521 66.6875 547.688 66.25C547.875 65.8125 547.969 65.1667 547.969 64.3125V49.6875C547.969 47.5417 547.562 45.9375 546.75 44.875C545.958 43.8125 544.823 43.2812 543.344 43.2812C542.51 43.2812 541.729 43.4062 541 43.6562C540.292 43.9062 539.594 44.2708 538.906 44.75C538.302 45.1667 537.812 45.5938 537.438 46.0312C537.083 46.4688 536.781 46.8542 536.531 47.1875V63.9688C536.531 64.7396 536.625 65.3542 536.812 65.8125C537 66.25 537.354 66.6146 537.875 66.9062C538.188 67.0938 538.594 67.2604 539.094 67.4062C539.615 67.5521 540.115 67.6562 540.594 67.7188V70H521.594V67.7188C522.135 67.6771 522.656 67.625 523.156 67.5625C523.677 67.5 524.135 67.3958 524.531 67.25C525.198 67 525.646 66.6458 525.875 66.1875C526.125 65.7083 526.25 65.0833 526.25 64.3125V29.4688C526.25 28.8021 526.094 28.0938 525.781 27.3438C525.469 26.5938 525.031 26.0312 524.469 25.6562C524.052 25.3854 523.448 25.1771 522.656 25.0312C521.865 24.8646 521.156 24.7604 520.531 24.7188V22.4375L536.062 21.625L536.531 22.125V43.625H536.656C537.448 42.9167 538.156 42.2812 538.781 41.7188C539.427 41.1354 540.208 40.5521 541.125 39.9688C541.896 39.4688 542.896 39.0417 544.125 38.6875C545.375 38.3333 546.719 38.1562 548.156 38.1562C551.531 38.1562 554.062 39.125 555.75 41.0625C557.458 43 558.312 45.5521 558.312 48.7188V64.0312C558.312 64.8021 558.427 65.4167 558.656 65.875C558.885 66.3333 559.312 66.6979 559.938 66.9688C560.312 67.1354 560.729 67.2812 561.188 67.4062C561.646 67.5312 562.208 67.6354 562.875 67.7188V70ZM585.5 70H565.75V67.7188C566.292 67.6771 566.823 67.625 567.344 67.5625C567.865 67.5 568.312 67.3958 568.688 67.25C569.354 67 569.823 66.6458 570.094 66.1875C570.365 65.7083 570.5 65.0833 570.5 64.3125V46.125C570.5 45.3958 570.333 44.7604 570 44.2188C569.667 43.6562 569.25 43.2083 568.75 42.875C568.375 42.625 567.802 42.3854 567.031 42.1562C566.281 41.9271 565.594 41.7812 564.969 41.7188V39.4375L580.281 38.625L580.75 39.0938V63.9062C580.75 64.6354 580.906 65.2604 581.219 65.7812C581.531 66.2812 581.979 66.6562 582.562 66.9062C582.979 67.0938 583.438 67.2604 583.938 67.4062C584.438 67.5521 584.958 67.6562 585.5 67.7188V70ZM580.938 27.375C580.938 28.9583 580.323 30.3125 579.094 31.4375C577.885 32.5417 576.448 33.0938 574.781 33.0938C573.094 33.0938 571.635 32.5417 570.406 31.4375C569.198 30.3125 568.594 28.9583 568.594 27.375C568.594 25.7917 569.198 24.4375 570.406 23.3125C571.635 22.1875 573.094 21.625 574.781 21.625C576.469 21.625 577.917 22.1875 579.125 23.3125C580.333 24.4375 580.938 25.7917 580.938 27.375ZM629.625 70H610.812V67.7188C611.208 67.6771 611.688 67.625 612.25 67.5625C612.812 67.5 613.24 67.3958 613.531 67.25C613.969 67.0208 614.281 66.6875 614.469 66.25C614.656 65.8125 614.75 65.1667 614.75 64.3125V49.6875C614.75 47.5625 614.354 45.9688 613.562 44.9062C612.792 43.8229 611.646 43.2812 610.125 43.2812C609.292 43.2812 608.51 43.4062 607.781 43.6562C607.073 43.9062 606.375 44.2708 605.688 44.75C605.083 45.1667 604.594 45.5938 604.219 46.0312C603.865 46.4688 603.562 46.8542 603.312 47.1875V63.9688C603.312 64.6979 603.417 65.3125 603.625 65.8125C603.833 66.2917 604.177 66.6562 604.656 66.9062C604.99 67.0938 605.406 67.2604 605.906 67.4062C606.406 67.5521 606.896 67.6562 607.375 67.7188V70H588.375V67.7188C588.896 67.6771 589.417 67.625 589.938 67.5625C590.479 67.4792 590.938 67.375 591.312 67.25C591.979 67.0208 592.438 66.6667 592.688 66.1875C592.938 65.7083 593.062 65.0833 593.062 64.3125V46.125C593.062 45.4792 592.896 44.8438 592.562 44.2188C592.229 43.5938 591.792 43.0833 591.25 42.6875C590.875 42.4375 590.396 42.2292 589.812 42.0625C589.25 41.8958 588.625 41.7812 587.938 41.7188V39.4375L602.844 38.625L603.312 39.0938V43.625H603.438C604.021 43.1042 604.729 42.4792 605.562 41.75C606.396 41.0208 607.167 40.4271 607.875 39.9688C608.646 39.4688 609.656 39.0417 610.906 38.6875C612.156 38.3333 613.49 38.1562 614.906 38.1562C618.302 38.1562 620.844 39.125 622.531 41.0625C624.24 42.9792 625.094 45.5312 625.094 48.7188V64.0312C625.094 64.8021 625.208 65.4167 625.438 65.875C625.667 66.3333 626.094 66.6979 626.719 66.9688C627.052 67.1146 627.458 67.2604 627.938 67.4062C628.438 67.5521 629 67.6562 629.625 67.7188V70ZM667.562 42.5H660.688C661.5 43.4167 662.104 44.3854 662.5 45.4062C662.917 46.4271 663.125 47.4896 663.125 48.5938C663.125 50.0312 662.74 51.3854 661.969 52.6562C661.198 53.9062 660.188 54.9271 658.938 55.7188C657.667 56.5312 656.177 57.1667 654.469 57.625C652.76 58.0833 650.906 58.3125 648.906 58.3125H643.812C643.562 58.5 643.281 58.8021 642.969 59.2188C642.677 59.6146 642.531 60 642.531 60.375C642.531 61.2917 642.896 61.9271 643.625 62.2812C644.354 62.6354 645.677 62.8333 647.594 62.875C649.49 62.9167 651.406 63 653.344 63.125C655.281 63.2292 656.667 63.2917 657.5 63.3125C658.708 63.375 659.906 63.625 661.094 64.0625C662.281 64.4792 663.312 65.0312 664.188 65.7188C665.146 66.4479 665.938 67.3854 666.562 68.5312C667.188 69.6562 667.5 70.9583 667.5 72.4375C667.5 74.0208 667.115 75.5104 666.344 76.9062C665.594 78.3021 664.438 79.5104 662.875 80.5312C661.229 81.5938 659.25 82.4167 656.938 83C654.646 83.5833 651.802 83.875 648.406 83.875C642.927 83.875 638.76 83.2083 635.906 81.875C633.052 80.5417 631.625 78.5417 631.625 75.875C631.625 74.2292 632.396 72.875 633.938 71.8125C635.479 70.75 637.875 70.1667 641.125 70.0625V69.6875C639.208 69.0417 637.708 68.1875 636.625 67.125C635.562 66.0417 635.031 64.7917 635.031 63.375C635.031 62.5 635.24 61.7604 635.656 61.1562C636.094 60.5521 636.646 60.0208 637.312 59.5625C637.896 59.1667 638.604 58.8333 639.438 58.5625C640.271 58.2708 640.969 58.0417 641.531 57.875V57.5312C638.719 56.4896 636.646 55.2188 635.312 53.7188C634 52.2188 633.344 50.3854 633.344 48.2188C633.344 45.1562 634.75 42.7083 637.562 40.875C640.396 39.0417 643.979 38.125 648.312 38.125C649.729 38.125 651.094 38.25 652.406 38.5C653.74 38.7292 654.75 38.9375 655.438 39.125H667.562V42.5ZM652.906 48.4688C652.906 46.0312 652.521 44.1042 651.75 42.6875C650.979 41.2708 649.792 40.5625 648.188 40.5625C647.375 40.5625 646.667 40.7604 646.062 41.1562C645.458 41.5312 644.969 42.0833 644.594 42.8125C644.24 43.5208 644 44.3542 643.875 45.3125C643.75 46.25 643.688 47.2188 643.688 48.2188C643.688 50.4896 644.083 52.3542 644.875 53.8125C645.667 55.2708 646.792 56 648.25 56C649.75 56 650.896 55.3438 651.688 54.0312C652.5 52.7188 652.906 50.8646 652.906 48.4688ZM658.156 74.7188C658.156 74.0104 657.958 73.3021 657.562 72.5938C657.167 71.9062 656.281 71.3438 654.906 70.9062C654.156 70.7812 652.917 70.6979 651.188 70.6562C649.479 70.6146 647.125 70.5938 644.125 70.5938C643.396 71.2188 642.781 71.9583 642.281 72.8125C641.802 73.6667 641.562 74.6979 641.562 75.9062C641.562 76.4271 641.708 77 642 77.625C642.292 78.25 642.75 78.8333 643.375 79.375C644.104 79.9792 644.917 80.4479 645.812 80.7812C646.708 81.1354 648.062 81.3125 649.875 81.3125C652.562 81.3125 654.615 80.7917 656.031 79.75C657.448 78.7083 658.156 77.0312 658.156 74.7188ZM40.0938 150.719C40.0938 155.406 38.5417 159.292 35.4375 162.375C32.3542 165.458 28.4375 167 23.6875 167C21.8542 167 20.2708 166.865 18.9375 166.594C17.625 166.344 16.5104 166.031 15.5938 165.656C14.6354 165.26 13.8646 164.875 13.2812 164.5C12.7188 164.104 12.2708 163.781 11.9375 163.531L7.46875 167.594L5.625 166.875C5.72917 165.354 5.8125 163.708 5.875 161.938C5.95833 160.146 6 157.74 6 154.719V125.469C6 124.677 5.83333 123.948 5.5 123.281C5.1875 122.594 4.76042 122.073 4.21875 121.719C3.82292 121.469 3.23958 121.25 2.46875 121.062C1.71875 120.875 1.02083 120.76 0.375 120.719V118.438L15.8125 117.625L16.2812 118.125V138.438H16.4688C17.9896 136.958 19.5521 135.875 21.1562 135.188C22.7604 134.5 24.3646 134.156 25.9688 134.156C30.3438 134.156 33.7917 135.646 36.3125 138.625C38.8333 141.604 40.0938 145.635 40.0938 150.719ZM28.875 151.094C28.875 149.51 28.75 147.99 28.5 146.531C28.2708 145.052 27.875 143.75 27.3125 142.625C26.75 141.5 26.0104 140.604 25.0938 139.938C24.1771 139.25 23.0417 138.906 21.6875 138.906C20.4167 138.906 19.3646 139.115 18.5312 139.531C17.6979 139.948 16.9479 140.562 16.2812 141.375V159.562C16.4062 159.979 16.6354 160.531 16.9688 161.219C17.3229 161.885 17.6771 162.406 18.0312 162.781C18.5312 163.323 19.0625 163.74 19.625 164.031C20.1875 164.302 20.9792 164.438 22 164.438C24.125 164.438 25.8021 163.281 27.0312 160.969C28.2604 158.635 28.875 155.344 28.875 151.094ZM77.7188 158.531C76.9896 159.719 76.1042 160.844 75.0625 161.906C74.0417 162.948 72.875 163.844 71.5625 164.594C70.1667 165.385 68.75 165.979 67.3125 166.375C65.8958 166.792 64.2604 167 62.4062 167C59.3229 167 56.6562 166.562 54.4062 165.688C52.1771 164.812 50.3333 163.635 48.875 162.156C47.4167 160.677 46.3229 158.938 45.5938 156.938C44.8854 154.917 44.5312 152.729 44.5312 150.375C44.5312 148.25 44.9167 146.219 45.6875 144.281C46.4792 142.323 47.5938 140.583 49.0312 139.062C50.4479 137.583 52.2292 136.385 54.375 135.469C56.5417 134.552 58.9583 134.094 61.625 134.094C64.5417 134.094 66.9375 134.448 68.8125 135.156C70.6875 135.865 72.2396 136.844 73.4688 138.094C74.6562 139.281 75.5208 140.688 76.0625 142.312C76.6042 143.917 76.875 145.604 76.875 147.375V149.406H55.75C55.75 153.677 56.5729 156.927 58.2188 159.156C59.8646 161.385 62.4792 162.5 66.0625 162.5C68.0208 162.5 69.7812 161.969 71.3438 160.906C72.9062 159.823 74.2396 158.458 75.3438 156.812L77.7188 158.531ZM65.7812 146.656C65.7812 145.406 65.7188 144.125 65.5938 142.812C65.4688 141.5 65.25 140.427 64.9375 139.594C64.5833 138.615 64.0938 137.875 63.4688 137.375C62.8646 136.875 62.0938 136.625 61.1562 136.625C59.5521 136.625 58.2708 137.438 57.3125 139.062C56.3542 140.688 55.8333 143.26 55.75 146.781L65.7812 146.656ZM116.469 165.344C115.552 165.74 114.469 166.104 113.219 166.438C111.969 166.771 110.646 166.938 109.25 166.938C106.688 166.938 104.802 166.562 103.594 165.812C102.385 165.042 101.562 163.948 101.125 162.531H100.938C100.229 163.24 99.5417 163.844 98.875 164.344C98.2292 164.844 97.5312 165.271 96.7812 165.625C95.8021 166.083 94.8542 166.417 93.9375 166.625C93.0417 166.854 91.7812 166.969 90.1562 166.969C87.7396 166.969 85.6771 166.26 83.9688 164.844C82.2604 163.406 81.4062 161.51 81.4062 159.156C81.4062 157.802 81.5938 156.656 81.9688 155.719C82.3438 154.76 82.875 153.917 83.5625 153.188C84.1875 152.521 84.9062 151.969 85.7188 151.531C86.5521 151.094 87.4583 150.688 88.4375 150.312C90.3125 149.625 92.5625 148.917 95.1875 148.188C97.8125 147.438 99.7292 146.771 100.938 146.188V143.188C100.938 142.667 100.896 141.979 100.812 141.125C100.729 140.271 100.552 139.552 100.281 138.969C99.9896 138.302 99.5312 137.74 98.9062 137.281C98.2812 136.823 97.4583 136.594 96.4375 136.594C95.5208 136.594 94.75 136.729 94.125 137C93.5208 137.25 93.0312 137.51 92.6562 137.781C92.7188 138.198 92.8958 138.833 93.1875 139.688C93.4792 140.542 93.625 141.365 93.625 142.156C93.625 142.51 93.5312 142.958 93.3438 143.5C93.1562 144.021 92.8854 144.438 92.5312 144.75C92.0521 145.167 91.5104 145.49 90.9062 145.719C90.3229 145.948 89.4167 146.062 88.1875 146.062C86.4375 146.062 85.1146 145.646 84.2188 144.812C83.3229 143.958 82.875 142.854 82.875 141.5C82.875 140.333 83.3333 139.292 84.25 138.375C85.1875 137.438 86.3229 136.667 87.6562 136.062C88.9688 135.438 90.4792 134.958 92.1875 134.625C93.8958 134.271 95.4792 134.094 96.9375 134.094C98.9583 134.094 100.812 134.219 102.5 134.469C104.188 134.698 105.708 135.188 107.062 135.938C108.354 136.667 109.375 137.729 110.125 139.125C110.896 140.5 111.281 142.302 111.281 144.531C111.281 146.885 111.229 149.677 111.125 152.906C111.042 156.135 111 158.26 111 159.281C111 160.219 111.135 160.958 111.406 161.5C111.698 162.042 112.135 162.448 112.719 162.719C113.073 162.885 113.625 162.99 114.375 163.031C115.146 163.052 115.844 163.062 116.469 163.062V165.344ZM100.938 149.062C99.7708 149.458 98.6146 149.917 97.4688 150.438C96.3229 150.938 95.3854 151.469 94.6562 152.031C93.8854 152.615 93.2812 153.365 92.8438 154.281C92.4062 155.177 92.1875 156.24 92.1875 157.469C92.1875 159.094 92.5521 160.271 93.2812 161C94.0312 161.729 94.9479 162.094 96.0312 162.094C97.1771 162.094 98.1146 161.865 98.8438 161.406C99.5938 160.927 100.25 160.344 100.812 159.656L100.938 149.062ZM159.656 165.344L144.75 166.25L144.281 165.812V161.719H144.094C143.385 162.365 142.688 163 142 163.625C141.333 164.229 140.531 164.781 139.594 165.281C138.531 165.844 137.521 166.26 136.562 166.531C135.625 166.802 134.25 166.938 132.438 166.938C129.292 166.938 126.875 165.99 125.188 164.094C123.521 162.198 122.688 159.521 122.688 156.062V142C122.688 141.188 122.531 140.531 122.219 140.031C121.906 139.51 121.49 139.052 120.969 138.656C120.552 138.344 120.01 138.125 119.344 138C118.677 137.854 118.073 137.76 117.531 137.719V135.438L132.688 134.625L133.031 135.094V155.875C133.031 158.021 133.438 159.604 134.25 160.625C135.083 161.646 136.219 162.156 137.656 162.156C139.135 162.156 140.458 161.771 141.625 161C142.812 160.229 143.677 159.406 144.219 158.531V141.688C144.219 140.979 144.083 140.344 143.812 139.781C143.542 139.219 143.146 138.76 142.625 138.406C142.25 138.156 141.708 137.99 141 137.906C140.312 137.823 139.604 137.76 138.875 137.719V135.438L154.031 134.625L154.5 135.094V159.219C154.5 159.948 154.646 160.573 154.938 161.094C155.229 161.594 155.656 162.021 156.219 162.375C156.615 162.625 157.125 162.802 157.75 162.906C158.396 162.99 159.031 163.042 159.656 163.062V165.344ZM185.438 164.562C184.104 165.146 182.677 165.667 181.156 166.125C179.635 166.604 177.781 166.844 175.594 166.844C172.344 166.844 169.927 166.052 168.344 164.469C166.781 162.885 166 160.625 166 157.688V138.5H160.375V135.125H166.125V125.656H176.281V135.125H185.031V138.5H176.344V155.625C176.344 158.062 176.677 159.792 177.344 160.812C178.031 161.833 179.25 162.344 181 162.344C181.562 162.344 182.344 162.302 183.344 162.219C184.344 162.135 185.042 162.042 185.438 161.938V164.562ZM207.375 166H187.625V163.719C188.167 163.677 188.698 163.625 189.219 163.562C189.74 163.5 190.188 163.396 190.562 163.25C191.229 163 191.698 162.646 191.969 162.188C192.24 161.708 192.375 161.083 192.375 160.312V142.125C192.375 141.396 192.208 140.76 191.875 140.219C191.542 139.656 191.125 139.208 190.625 138.875C190.25 138.625 189.677 138.385 188.906 138.156C188.156 137.927 187.469 137.781 186.844 137.719V135.438L202.156 134.625L202.625 135.094V159.906C202.625 160.635 202.781 161.26 203.094 161.781C203.406 162.281 203.854 162.656 204.438 162.906C204.854 163.094 205.312 163.26 205.812 163.406C206.312 163.552 206.833 163.656 207.375 163.719V166ZM202.812 123.375C202.812 124.958 202.198 126.312 200.969 127.438C199.76 128.542 198.323 129.094 196.656 129.094C194.969 129.094 193.51 128.542 192.281 127.438C191.073 126.312 190.469 124.958 190.469 123.375C190.469 121.792 191.073 120.438 192.281 119.312C193.51 118.188 194.969 117.625 196.656 117.625C198.344 117.625 199.792 118.188 201 119.312C202.208 120.438 202.812 121.792 202.812 123.375ZM239.812 122.906C239.812 123.427 239.729 124 239.562 124.625C239.396 125.25 239.125 125.781 238.75 126.219C238.312 126.74 237.823 127.135 237.281 127.406C236.74 127.677 235.927 127.812 234.844 127.812C233.198 127.812 231.906 127.24 230.969 126.094C230.031 124.948 229.031 123.042 227.969 120.375C227.135 120.729 226.458 121.646 225.938 123.125C225.417 124.604 225.156 127.781 225.156 132.656V135.125H233.781V138.5H225.219V160.031C225.219 160.844 225.406 161.479 225.781 161.938C226.156 162.375 226.646 162.698 227.25 162.906C227.75 163.073 228.406 163.24 229.219 163.406C230.031 163.552 230.76 163.656 231.406 163.719V166H210.312V163.719C210.854 163.677 211.375 163.625 211.875 163.562C212.396 163.5 212.854 163.396 213.25 163.25C213.917 163 214.365 162.646 214.594 162.188C214.844 161.708 214.969 161.083 214.969 160.312V138.5H208.625V135.125H214.969C214.969 132.896 215.292 130.74 215.938 128.656C216.583 126.552 217.583 124.677 218.938 123.031C220.25 121.406 221.979 120.094 224.125 119.094C226.271 118.094 228.792 117.594 231.688 117.594C234.271 117.594 236.271 118.083 237.688 119.062C239.104 120.042 239.812 121.323 239.812 122.906ZM276.219 165.344L261.312 166.25L260.844 165.812V161.719H260.656C259.948 162.365 259.25 163 258.562 163.625C257.896 164.229 257.094 164.781 256.156 165.281C255.094 165.844 254.083 166.26 253.125 166.531C252.188 166.802 250.812 166.938 249 166.938C245.854 166.938 243.438 165.99 241.75 164.094C240.083 162.198 239.25 159.521 239.25 156.062V142C239.25 141.188 239.094 140.531 238.781 140.031C238.469 139.51 238.052 139.052 237.531 138.656C237.115 138.344 236.573 138.125 235.906 138C235.24 137.854 234.635 137.76 234.094 137.719V135.438L249.25 134.625L249.594 135.094V155.875C249.594 158.021 250 159.604 250.812 160.625C251.646 161.646 252.781 162.156 254.219 162.156C255.698 162.156 257.021 161.771 258.188 161C259.375 160.229 260.24 159.406 260.781 158.531V141.688C260.781 140.979 260.646 140.344 260.375 139.781C260.104 139.219 259.708 138.76 259.188 138.406C258.812 138.156 258.271 137.99 257.562 137.906C256.875 137.823 256.167 137.76 255.438 137.719V135.438L270.594 134.625L271.062 135.094V159.219C271.062 159.948 271.208 160.573 271.5 161.094C271.792 161.594 272.219 162.021 272.781 162.375C273.177 162.625 273.688 162.802 274.312 162.906C274.958 162.99 275.594 163.042 276.219 163.062V165.344ZM297.781 166H278.188V163.719C278.729 163.677 279.25 163.625 279.75 163.562C280.271 163.5 280.729 163.396 281.125 163.25C281.792 163 282.24 162.646 282.469 162.188C282.719 161.708 282.844 161.083 282.844 160.312V125.688C282.844 124.896 282.677 124.167 282.344 123.5C282.031 122.812 281.604 122.292 281.062 121.938C280.646 121.667 280.01 121.406 279.156 121.156C278.323 120.906 277.583 120.76 276.938 120.719V118.438L292.656 117.625L293.125 118.125V159.906C293.125 160.677 293.26 161.302 293.531 161.781C293.802 162.26 294.24 162.635 294.844 162.906C295.26 163.094 295.698 163.26 296.156 163.406C296.615 163.552 297.156 163.656 297.781 163.719V166ZM340.312 164.562C338.979 165.146 337.552 165.667 336.031 166.125C334.51 166.604 332.656 166.844 330.469 166.844C327.219 166.844 324.802 166.052 323.219 164.469C321.656 162.885 320.875 160.625 320.875 157.688V138.5H315.25V135.125H321V125.656H331.156V135.125H339.906V138.5H331.219V155.625C331.219 158.062 331.552 159.792 332.219 160.812C332.906 161.833 334.125 162.344 335.875 162.344C336.438 162.344 337.219 162.302 338.219 162.219C339.219 162.135 339.917 162.042 340.312 161.938V164.562ZM374.406 138.688C375.948 140.125 377.125 141.844 377.938 143.844C378.75 145.844 379.156 148.01 379.156 150.344C379.156 152.656 378.75 154.844 377.938 156.906C377.146 158.948 375.979 160.698 374.438 162.156C372.792 163.719 370.823 164.917 368.531 165.75C366.26 166.583 363.656 167 360.719 167C358.177 167 355.833 166.635 353.688 165.906C351.562 165.177 349.677 164.083 348.031 162.625C346.448 161.229 345.198 159.51 344.281 157.469C343.365 155.406 342.906 153.104 342.906 150.562C342.906 148.062 343.302 145.844 344.094 143.906C344.906 141.948 346.115 140.208 347.719 138.688C349.26 137.229 351.156 136.104 353.406 135.312C355.677 134.5 358.208 134.094 361 134.094C363.917 134.094 366.479 134.5 368.688 135.312C370.917 136.104 372.823 137.229 374.406 138.688ZM366.406 160.344C366.865 159.177 367.198 157.76 367.406 156.094C367.635 154.427 367.75 152.49 367.75 150.281C367.75 148.823 367.646 147.156 367.438 145.281C367.229 143.406 366.917 141.927 366.5 140.844C366 139.531 365.302 138.5 364.406 137.75C363.531 137 362.417 136.625 361.062 136.625C359.583 136.625 358.396 137.031 357.5 137.844C356.625 138.656 355.948 139.708 355.469 141C355.031 142.188 354.729 143.583 354.562 145.188C354.396 146.771 354.312 148.427 354.312 150.156C354.312 152.427 354.385 154.312 354.531 155.812C354.677 157.292 355.031 158.781 355.594 160.281C356.073 161.573 356.76 162.594 357.656 163.344C358.552 164.094 359.688 164.469 361.062 164.469C362.312 164.469 363.385 164.125 364.281 163.438C365.177 162.729 365.885 161.698 366.406 160.344ZM422.688 164.562C421.354 165.146 419.927 165.667 418.406 166.125C416.885 166.604 415.031 166.844 412.844 166.844C409.594 166.844 407.177 166.052 405.594 164.469C404.031 162.885 403.25 160.625 403.25 157.688V138.5H397.625V135.125H403.375V125.656H413.531V135.125H422.281V138.5H413.594V155.625C413.594 158.062 413.927 159.792 414.594 160.812C415.281 161.833 416.5 162.344 418.25 162.344C418.812 162.344 419.594 162.302 420.594 162.219C421.594 162.135 422.292 162.042 422.688 161.938V164.562ZM465.5 166H446.688V163.719C447.104 163.677 447.594 163.625 448.156 163.562C448.719 163.5 449.135 163.396 449.406 163.25C449.844 163.021 450.146 162.688 450.312 162.25C450.5 161.812 450.594 161.167 450.594 160.312V145.688C450.594 143.542 450.188 141.938 449.375 140.875C448.583 139.812 447.448 139.281 445.969 139.281C445.135 139.281 444.354 139.406 443.625 139.656C442.917 139.906 442.219 140.271 441.531 140.75C440.927 141.167 440.438 141.594 440.062 142.031C439.708 142.469 439.406 142.854 439.156 143.188V159.969C439.156 160.74 439.25 161.354 439.438 161.812C439.625 162.25 439.979 162.615 440.5 162.906C440.812 163.094 441.219 163.26 441.719 163.406C442.24 163.552 442.74 163.656 443.219 163.719V166H424.219V163.719C424.76 163.677 425.281 163.625 425.781 163.562C426.302 163.5 426.76 163.396 427.156 163.25C427.823 163 428.271 162.646 428.5 162.188C428.75 161.708 428.875 161.083 428.875 160.312V125.469C428.875 124.802 428.719 124.094 428.406 123.344C428.094 122.594 427.656 122.031 427.094 121.656C426.677 121.385 426.073 121.177 425.281 121.031C424.49 120.865 423.781 120.76 423.156 120.719V118.438L438.688 117.625L439.156 118.125V139.625H439.281C440.073 138.917 440.781 138.281 441.406 137.719C442.052 137.135 442.833 136.552 443.75 135.969C444.521 135.469 445.521 135.042 446.75 134.688C448 134.333 449.344 134.156 450.781 134.156C454.156 134.156 456.688 135.125 458.375 137.062C460.083 139 460.938 141.552 460.938 144.719V160.031C460.938 160.802 461.052 161.417 461.281 161.875C461.51 162.333 461.938 162.698 462.562 162.969C462.938 163.135 463.354 163.281 463.812 163.406C464.271 163.531 464.833 163.635 465.5 163.719V166ZM501.969 158.531C501.24 159.719 500.354 160.844 499.312 161.906C498.292 162.948 497.125 163.844 495.812 164.594C494.417 165.385 493 165.979 491.562 166.375C490.146 166.792 488.51 167 486.656 167C483.573 167 480.906 166.562 478.656 165.688C476.427 164.812 474.583 163.635 473.125 162.156C471.667 160.677 470.573 158.938 469.844 156.938C469.135 154.917 468.781 152.729 468.781 150.375C468.781 148.25 469.167 146.219 469.938 144.281C470.729 142.323 471.844 140.583 473.281 139.062C474.698 137.583 476.479 136.385 478.625 135.469C480.792 134.552 483.208 134.094 485.875 134.094C488.792 134.094 491.188 134.448 493.062 135.156C494.938 135.865 496.49 136.844 497.719 138.094C498.906 139.281 499.771 140.688 500.312 142.312C500.854 143.917 501.125 145.604 501.125 147.375V149.406H480C480 153.677 480.823 156.927 482.469 159.156C484.115 161.385 486.729 162.5 490.312 162.5C492.271 162.5 494.031 161.969 495.594 160.906C497.156 159.823 498.49 158.458 499.594 156.812L501.969 158.531ZM490.031 146.656C490.031 145.406 489.969 144.125 489.844 142.812C489.719 141.5 489.5 140.427 489.188 139.594C488.833 138.615 488.344 137.875 487.719 137.375C487.115 136.875 486.344 136.625 485.406 136.625C483.802 136.625 482.521 137.438 481.562 139.062C480.604 140.688 480.083 143.26 480 146.781L490.031 146.656ZM544.5 164.562C543.167 165.146 541.74 165.667 540.219 166.125C538.698 166.604 536.844 166.844 534.656 166.844C531.406 166.844 528.99 166.052 527.406 164.469C525.844 162.885 525.062 160.625 525.062 157.688V138.5H519.438V135.125H525.188V125.656H535.344V135.125H544.094V138.5H535.406V155.625C535.406 158.062 535.74 159.792 536.406 160.812C537.094 161.833 538.312 162.344 540.062 162.344C540.625 162.344 541.406 162.302 542.406 162.219C543.406 162.135 544.104 162.042 544.5 161.938V164.562ZM566.438 166H546.688V163.719C547.229 163.677 547.76 163.625 548.281 163.562C548.802 163.5 549.25 163.396 549.625 163.25C550.292 163 550.76 162.646 551.031 162.188C551.302 161.708 551.438 161.083 551.438 160.312V142.125C551.438 141.396 551.271 140.76 550.938 140.219C550.604 139.656 550.188 139.208 549.688 138.875C549.312 138.625 548.74 138.385 547.969 138.156C547.219 137.927 546.531 137.781 545.906 137.719V135.438L561.219 134.625L561.688 135.094V159.906C561.688 160.635 561.844 161.26 562.156 161.781C562.469 162.281 562.917 162.656 563.5 162.906C563.917 163.094 564.375 163.26 564.875 163.406C565.375 163.552 565.896 163.656 566.438 163.719V166ZM561.875 123.375C561.875 124.958 561.26 126.312 560.031 127.438C558.823 128.542 557.385 129.094 555.719 129.094C554.031 129.094 552.573 128.542 551.344 127.438C550.135 126.312 549.531 124.958 549.531 123.375C549.531 121.792 550.135 120.438 551.344 119.312C552.573 118.188 554.031 117.625 555.719 117.625C557.406 117.625 558.854 118.188 560.062 119.312C561.271 120.438 561.875 121.792 561.875 123.375ZM607.375 150.781C607.375 155.177 605.906 158.948 602.969 162.094C600.031 165.24 596.312 166.812 591.812 166.812C589.812 166.812 588.188 166.604 586.938 166.188C585.688 165.792 584.656 165.302 583.844 164.719H583.594V173.5C583.594 174.229 583.75 174.865 584.062 175.406C584.396 175.948 584.854 176.344 585.438 176.594C586 176.823 586.792 177.031 587.812 177.219C588.854 177.406 589.719 177.521 590.406 177.562V179.875H567.844V177.562C568.365 177.521 569.021 177.438 569.812 177.312C570.604 177.208 571.198 177.094 571.594 176.969C572.26 176.74 572.708 176.344 572.938 175.781C573.188 175.24 573.312 174.615 573.312 173.906V141.938C573.25 141.25 573.083 140.646 572.812 140.125C572.562 139.604 572.156 139.146 571.594 138.75C571.177 138.479 570.625 138.26 569.938 138.094C569.25 137.906 568.573 137.781 567.906 137.719V135.438L583.125 134.625L583.594 135.031V138.5L583.844 138.562C585.219 137.167 586.74 136.083 588.406 135.312C590.094 134.542 591.76 134.156 593.406 134.156C597.719 134.156 601.125 135.688 603.625 138.75C606.125 141.792 607.375 145.802 607.375 150.781ZM596.156 150.906C596.156 149.344 596.042 147.854 595.812 146.438C595.583 145 595.177 143.719 594.594 142.594C594.031 141.469 593.281 140.573 592.344 139.906C591.427 139.24 590.302 138.906 588.969 138.906C587.615 138.906 586.531 139.146 585.719 139.625C584.906 140.083 584.198 140.688 583.594 141.438V159.156C583.719 159.573 583.958 160.115 584.312 160.781C584.667 161.427 585.021 161.948 585.375 162.344C585.896 162.906 586.49 163.323 587.156 163.594C587.823 163.865 588.552 164 589.344 164C591.406 164 593.052 162.896 594.281 160.688C595.531 158.458 596.156 155.198 596.156 150.906ZM625.906 167.062C623.885 167.062 621.906 166.76 619.969 166.156C618.052 165.573 616.562 164.948 615.5 164.281L614.562 166.406H612.125L611.719 154.75H614C614.312 155.688 614.833 156.75 615.562 157.938C616.292 159.104 617.125 160.156 618.062 161.094C619.042 162.031 620.156 162.823 621.406 163.469C622.677 164.115 624.031 164.438 625.469 164.438C627.365 164.438 628.771 164.073 629.688 163.344C630.625 162.594 631.094 161.448 631.094 159.906C631.094 159.073 630.885 158.385 630.469 157.844C630.052 157.302 629.479 156.833 628.75 156.438C627.938 156.021 627.042 155.667 626.062 155.375C625.104 155.083 623.917 154.729 622.5 154.312C621.083 153.896 619.865 153.479 618.844 153.062C617.844 152.625 616.802 151.948 615.719 151.031C614.781 150.219 614.031 149.24 613.469 148.094C612.906 146.948 612.625 145.583 612.625 144C612.625 141.062 613.854 138.688 616.312 136.875C618.792 135.062 622.031 134.156 626.031 134.156C627.927 134.156 629.667 134.354 631.25 134.75C632.854 135.125 634.198 135.542 635.281 136L635.938 134.156H638.312L638.812 144.812H636.594C635.865 142.646 634.615 140.781 632.844 139.219C631.073 137.635 629.167 136.844 627.125 136.844C625.521 136.844 624.26 137.177 623.344 137.844C622.427 138.51 621.969 139.438 621.969 140.625C621.969 142.208 622.635 143.354 623.969 144.062C625.323 144.771 627.208 145.438 629.625 146.062C633.354 147.021 636.083 148.333 637.812 150C639.542 151.646 640.406 153.75 640.406 156.312C640.406 159.729 639.062 162.375 636.375 164.25C633.708 166.125 630.219 167.062 625.906 167.062ZM34.7188 234.688C36.2604 236.125 37.4375 237.844 38.25 239.844C39.0625 241.844 39.4688 244.01 39.4688 246.344C39.4688 248.656 39.0625 250.844 38.25 252.906C37.4583 254.948 36.2917 256.698 34.75 258.156C33.1042 259.719 31.1354 260.917 28.8438 261.75C26.5729 262.583 23.9688 263 21.0312 263C18.4896 263 16.1458 262.635 14 261.906C11.875 261.177 9.98958 260.083 8.34375 258.625C6.76042 257.229 5.51042 255.51 4.59375 253.469C3.67708 251.406 3.21875 249.104 3.21875 246.562C3.21875 244.062 3.61458 241.844 4.40625 239.906C5.21875 237.948 6.42708 236.208 8.03125 234.688C9.57292 233.229 11.4688 232.104 13.7188 231.312C15.9896 230.5 18.5208 230.094 21.3125 230.094C24.2292 230.094 26.7917 230.5 29 231.312C31.2292 232.104 33.1354 233.229 34.7188 234.688ZM26.7188 256.344C27.1771 255.177 27.5104 253.76 27.7188 252.094C27.9479 250.427 28.0625 248.49 28.0625 246.281C28.0625 244.823 27.9583 243.156 27.75 241.281C27.5417 239.406 27.2292 237.927 26.8125 236.844C26.3125 235.531 25.6146 234.5 24.7188 233.75C23.8438 233 22.7292 232.625 21.375 232.625C19.8958 232.625 18.7083 233.031 17.8125 233.844C16.9375 234.656 16.2604 235.708 15.7812 237C15.3438 238.188 15.0417 239.583 14.875 241.188C14.7083 242.771 14.625 244.427 14.625 246.156C14.625 248.427 14.6979 250.312 14.8438 251.812C14.9896 253.292 15.3438 254.781 15.9062 256.281C16.3854 257.573 17.0729 258.594 17.9688 259.344C18.8646 260.094 20 260.469 21.375 260.469C22.625 260.469 23.6979 260.125 24.5938 259.438C25.4896 258.729 26.1979 257.698 26.7188 256.344ZM73.0625 218.906C73.0625 219.427 72.9792 220 72.8125 220.625C72.6458 221.25 72.375 221.781 72 222.219C71.5625 222.74 71.0729 223.135 70.5312 223.406C69.9896 223.677 69.1771 223.812 68.0938 223.812C66.4479 223.812 65.1562 223.24 64.2188 222.094C63.2812 220.948 62.2812 219.042 61.2188 216.375C60.3854 216.729 59.7083 217.646 59.1875 219.125C58.6667 220.604 58.4062 223.781 58.4062 228.656V231.125H67.0312V234.5H58.4688V256.031C58.4688 256.844 58.6562 257.479 59.0312 257.938C59.4062 258.375 59.8958 258.698 60.5 258.906C61 259.073 61.6562 259.24 62.4688 259.406C63.2812 259.552 64.0104 259.656 64.6562 259.719V262H43.5625V259.719C44.1042 259.677 44.625 259.625 45.125 259.562C45.6458 259.5 46.1042 259.396 46.5 259.25C47.1667 259 47.6146 258.646 47.8438 258.188C48.0938 257.708 48.2188 257.083 48.2188 256.312V234.5H41.875V231.125H48.2188C48.2188 228.896 48.5417 226.74 49.1875 224.656C49.8333 222.552 50.8333 220.677 52.1875 219.031C53.5 217.406 55.2292 216.094 57.375 215.094C59.5208 214.094 62.0417 213.594 64.9375 213.594C67.5208 213.594 69.5208 214.083 70.9375 215.062C72.3542 216.042 73.0625 217.323 73.0625 218.906ZM120.25 233.281C119.312 233.427 118.396 233.781 117.5 234.344C116.625 234.906 115.896 235.781 115.312 236.969C113.521 240.76 111.677 244.802 109.781 249.094C107.885 253.365 105.781 257.99 103.469 262.969C102.177 265.76 100.927 267.99 99.7188 269.656C98.5104 271.323 97.375 272.604 96.3125 273.5C95.3125 274.333 94.3229 274.938 93.3438 275.312C92.3646 275.688 91.375 275.875 90.375 275.875C88.3958 275.875 86.7917 275.323 85.5625 274.219C84.3542 273.115 83.75 271.875 83.75 270.5C83.75 269.917 83.8125 269.375 83.9375 268.875C84.0833 268.375 84.375 267.854 84.8125 267.312C85.1458 266.854 85.6562 266.458 86.3438 266.125C87.0521 265.812 87.8438 265.656 88.7188 265.656C89.8854 265.656 91 266.062 92.0625 266.875C93.125 267.688 94.2292 268.812 95.375 270.25C96.0625 269.562 96.9062 268.531 97.9062 267.156C98.9271 265.802 99.6771 264.406 100.156 262.969C97.6771 257.76 95.4792 253.25 93.5625 249.438C91.6458 245.604 89.5 241.333 87.125 236.625C86.6042 235.625 85.9062 234.854 85.0312 234.312C84.1562 233.75 83.2292 233.406 82.25 233.281V231H101.375V233.281C100.667 233.302 99.8438 233.458 98.9062 233.75C97.9896 234.042 97.5312 234.417 97.5312 234.875C97.5312 235.042 97.5625 235.229 97.625 235.438C97.6875 235.625 97.8021 235.906 97.9688 236.281C98.6771 237.74 99.6771 239.771 100.969 242.375C102.281 244.958 103.802 247.99 105.531 251.469C106.823 248.51 107.917 245.969 108.812 243.844C109.729 241.698 110.615 239.594 111.469 237.531C111.677 237.01 111.792 236.604 111.812 236.312C111.854 236 111.875 235.792 111.875 235.688C111.875 235.312 111.688 234.99 111.312 234.719C110.958 234.427 110.531 234.177 110.031 233.969C109.51 233.76 109.01 233.604 108.531 233.5C108.052 233.396 107.656 233.323 107.344 233.281V231H120.25V233.281ZM152.844 234.688C154.385 236.125 155.562 237.844 156.375 239.844C157.188 241.844 157.594 244.01 157.594 246.344C157.594 248.656 157.188 250.844 156.375 252.906C155.583 254.948 154.417 256.698 152.875 258.156C151.229 259.719 149.26 260.917 146.969 261.75C144.698 262.583 142.094 263 139.156 263C136.615 263 134.271 262.635 132.125 261.906C130 261.177 128.115 260.083 126.469 258.625C124.885 257.229 123.635 255.51 122.719 253.469C121.802 251.406 121.344 249.104 121.344 246.562C121.344 244.062 121.74 241.844 122.531 239.906C123.344 237.948 124.552 236.208 126.156 234.688C127.698 233.229 129.594 232.104 131.844 231.312C134.115 230.5 136.646 230.094 139.438 230.094C142.354 230.094 144.917 230.5 147.125 231.312C149.354 232.104 151.26 233.229 152.844 234.688ZM144.844 256.344C145.302 255.177 145.635 253.76 145.844 252.094C146.073 250.427 146.188 248.49 146.188 246.281C146.188 244.823 146.083 243.156 145.875 241.281C145.667 239.406 145.354 237.927 144.938 236.844C144.438 235.531 143.74 234.5 142.844 233.75C141.969 233 140.854 232.625 139.5 232.625C138.021 232.625 136.833 233.031 135.938 233.844C135.062 234.656 134.385 235.708 133.906 237C133.469 238.188 133.167 239.583 133 241.188C132.833 242.771 132.75 244.427 132.75 246.156C132.75 248.427 132.823 250.312 132.969 251.812C133.115 253.292 133.469 254.781 134.031 256.281C134.51 257.573 135.198 258.594 136.094 259.344C136.99 260.094 138.125 260.469 139.5 260.469C140.75 260.469 141.823 260.125 142.719 259.438C143.615 258.729 144.323 257.698 144.844 256.344ZM202.406 261.344L187.5 262.25L187.031 261.812V257.719H186.844C186.135 258.365 185.438 259 184.75 259.625C184.083 260.229 183.281 260.781 182.344 261.281C181.281 261.844 180.271 262.26 179.312 262.531C178.375 262.802 177 262.938 175.188 262.938C172.042 262.938 169.625 261.99 167.938 260.094C166.271 258.198 165.438 255.521 165.438 252.062V238C165.438 237.188 165.281 236.531 164.969 236.031C164.656 235.51 164.24 235.052 163.719 234.656C163.302 234.344 162.76 234.125 162.094 234C161.427 233.854 160.823 233.76 160.281 233.719V231.438L175.438 230.625L175.781 231.094V251.875C175.781 254.021 176.188 255.604 177 256.625C177.833 257.646 178.969 258.156 180.406 258.156C181.885 258.156 183.208 257.771 184.375 257C185.562 256.229 186.427 255.406 186.969 254.531V237.688C186.969 236.979 186.833 236.344 186.562 235.781C186.292 235.219 185.896 234.76 185.375 234.406C185 234.156 184.458 233.99 183.75 233.906C183.062 233.823 182.354 233.76 181.625 233.719V231.438L196.781 230.625L197.25 231.094V255.219C197.25 255.948 197.396 256.573 197.688 257.094C197.979 257.594 198.406 258.021 198.969 258.375C199.365 258.625 199.875 258.802 200.5 258.906C201.146 258.99 201.781 259.042 202.406 259.062V261.344ZM236.062 236.719C236.062 238.302 235.573 239.698 234.594 240.906C233.615 242.094 232.323 242.688 230.719 242.688C229.198 242.688 227.906 242.302 226.844 241.531C225.802 240.76 225.281 239.625 225.281 238.125C225.281 237.396 225.333 236.833 225.438 236.438C225.542 236.021 225.635 235.635 225.719 235.281C224.76 235.323 223.75 235.656 222.688 236.281C221.625 236.906 220.688 237.74 219.875 238.781V255.938C219.875 256.667 219.99 257.271 220.219 257.75C220.448 258.229 220.833 258.604 221.375 258.875C221.833 259.104 222.573 259.302 223.594 259.469C224.635 259.615 225.385 259.698 225.844 259.719V262H204.938V259.719C205.458 259.677 205.979 259.625 206.5 259.562C207.042 259.479 207.5 259.375 207.875 259.25C208.542 259.021 209 258.667 209.25 258.188C209.5 257.708 209.625 257.083 209.625 256.312V238.125C209.625 237.375 209.448 236.708 209.094 236.125C208.74 235.521 208.312 235.042 207.812 234.688C207.438 234.438 206.958 234.229 206.375 234.062C205.812 233.896 205.188 233.781 204.5 233.719V231.438L219.406 230.625L219.875 231.094V235.625H220C221.438 233.958 222.958 232.656 224.562 231.719C226.188 230.76 227.875 230.281 229.625 230.281C231.562 230.281 233.115 230.885 234.281 232.094C235.469 233.281 236.062 234.823 236.062 236.719ZM284.062 218.906C284.062 219.427 283.979 220 283.812 220.625C283.646 221.25 283.375 221.781 283 222.219C282.562 222.74 282.073 223.135 281.531 223.406C280.99 223.677 280.177 223.812 279.094 223.812C277.448 223.812 276.156 223.24 275.219 222.094C274.281 220.948 273.281 219.042 272.219 216.375C271.385 216.729 270.708 217.646 270.188 219.125C269.667 220.604 269.406 223.781 269.406 228.656V231.125H278.031V234.5H269.469V256.031C269.469 256.844 269.656 257.479 270.031 257.938C270.406 258.375 270.896 258.698 271.5 258.906C272 259.073 272.656 259.24 273.469 259.406C274.281 259.552 275.01 259.656 275.656 259.719V262H254.562V259.719C255.104 259.677 255.625 259.625 256.125 259.562C256.646 259.5 257.104 259.396 257.5 259.25C258.167 259 258.615 258.646 258.844 258.188C259.094 257.708 259.219 257.083 259.219 256.312V234.5H252.875V231.125H259.219C259.219 228.896 259.542 226.74 260.188 224.656C260.833 222.552 261.833 220.677 263.188 219.031C264.5 217.406 266.229 216.094 268.375 215.094C270.521 214.094 273.042 213.594 275.938 213.594C278.521 213.594 280.521 214.083 281.938 215.062C283.354 216.042 284.062 217.323 284.062 218.906ZM299.438 262H279.688V259.719C280.229 259.677 280.76 259.625 281.281 259.562C281.802 259.5 282.25 259.396 282.625 259.25C283.292 259 283.76 258.646 284.031 258.188C284.302 257.708 284.438 257.083 284.438 256.312V238.125C284.438 237.396 284.271 236.76 283.938 236.219C283.604 235.656 283.188 235.208 282.688 234.875C282.312 234.625 281.74 234.385 280.969 234.156C280.219 233.927 279.531 233.781 278.906 233.719V231.438L294.219 230.625L294.688 231.094V255.906C294.688 256.635 294.844 257.26 295.156 257.781C295.469 258.281 295.917 258.656 296.5 258.906C296.917 259.094 297.375 259.26 297.875 259.406C298.375 259.552 298.896 259.656 299.438 259.719V262ZM294.875 219.375C294.875 220.958 294.26 222.312 293.031 223.438C291.823 224.542 290.385 225.094 288.719 225.094C287.031 225.094 285.573 224.542 284.344 223.438C283.135 222.312 282.531 220.958 282.531 219.375C282.531 217.792 283.135 216.438 284.344 215.312C285.573 214.188 287.031 213.625 288.719 213.625C290.406 213.625 291.854 214.188 293.062 215.312C294.271 216.438 294.875 217.792 294.875 219.375ZM343.562 262H324.75V259.719C325.146 259.677 325.625 259.625 326.188 259.562C326.75 259.5 327.177 259.396 327.469 259.25C327.906 259.021 328.219 258.688 328.406 258.25C328.594 257.812 328.688 257.167 328.688 256.312V241.688C328.688 239.562 328.292 237.969 327.5 236.906C326.729 235.823 325.583 235.281 324.062 235.281C323.229 235.281 322.448 235.406 321.719 235.656C321.01 235.906 320.312 236.271 319.625 236.75C319.021 237.167 318.531 237.594 318.156 238.031C317.802 238.469 317.5 238.854 317.25 239.188V255.969C317.25 256.698 317.354 257.312 317.562 257.812C317.771 258.292 318.115 258.656 318.594 258.906C318.927 259.094 319.344 259.26 319.844 259.406C320.344 259.552 320.833 259.656 321.312 259.719V262H302.312V259.719C302.833 259.677 303.354 259.625 303.875 259.562C304.417 259.479 304.875 259.375 305.25 259.25C305.917 259.021 306.375 258.667 306.625 258.188C306.875 257.708 307 257.083 307 256.312V238.125C307 237.479 306.833 236.844 306.5 236.219C306.167 235.594 305.729 235.083 305.188 234.688C304.812 234.438 304.333 234.229 303.75 234.062C303.188 233.896 302.562 233.781 301.875 233.719V231.438L316.781 230.625L317.25 231.094V235.625H317.375C317.958 235.104 318.667 234.479 319.5 233.75C320.333 233.021 321.104 232.427 321.812 231.969C322.583 231.469 323.594 231.042 324.844 230.688C326.094 230.333 327.427 230.156 328.844 230.156C332.24 230.156 334.781 231.125 336.469 233.062C338.177 234.979 339.031 237.531 339.031 240.719V256.031C339.031 256.802 339.146 257.417 339.375 257.875C339.604 258.333 340.031 258.698 340.656 258.969C340.99 259.115 341.396 259.26 341.875 259.406C342.375 259.552 342.938 259.656 343.562 259.719V262ZM381.5 234.5H374.625C375.438 235.417 376.042 236.385 376.438 237.406C376.854 238.427 377.062 239.49 377.062 240.594C377.062 242.031 376.677 243.385 375.906 244.656C375.135 245.906 374.125 246.927 372.875 247.719C371.604 248.531 370.115 249.167 368.406 249.625C366.698 250.083 364.844 250.312 362.844 250.312H357.75C357.5 250.5 357.219 250.802 356.906 251.219C356.615 251.615 356.469 252 356.469 252.375C356.469 253.292 356.833 253.927 357.562 254.281C358.292 254.635 359.615 254.833 361.531 254.875C363.427 254.917 365.344 255 367.281 255.125C369.219 255.229 370.604 255.292 371.438 255.312C372.646 255.375 373.844 255.625 375.031 256.062C376.219 256.479 377.25 257.031 378.125 257.719C379.083 258.448 379.875 259.385 380.5 260.531C381.125 261.656 381.438 262.958 381.438 264.438C381.438 266.021 381.052 267.51 380.281 268.906C379.531 270.302 378.375 271.51 376.812 272.531C375.167 273.594 373.188 274.417 370.875 275C368.583 275.583 365.74 275.875 362.344 275.875C356.865 275.875 352.698 275.208 349.844 273.875C346.99 272.542 345.562 270.542 345.562 267.875C345.562 266.229 346.333 264.875 347.875 263.812C349.417 262.75 351.812 262.167 355.062 262.062V261.688C353.146 261.042 351.646 260.188 350.562 259.125C349.5 258.042 348.969 256.792 348.969 255.375C348.969 254.5 349.177 253.76 349.594 253.156C350.031 252.552 350.583 252.021 351.25 251.562C351.833 251.167 352.542 250.833 353.375 250.562C354.208 250.271 354.906 250.042 355.469 249.875V249.531C352.656 248.49 350.583 247.219 349.25 245.719C347.938 244.219 347.281 242.385 347.281 240.219C347.281 237.156 348.688 234.708 351.5 232.875C354.333 231.042 357.917 230.125 362.25 230.125C363.667 230.125 365.031 230.25 366.344 230.5C367.677 230.729 368.688 230.938 369.375 231.125H381.5V234.5ZM366.844 240.469C366.844 238.031 366.458 236.104 365.688 234.688C364.917 233.271 363.729 232.562 362.125 232.562C361.312 232.562 360.604 232.76 360 233.156C359.396 233.531 358.906 234.083 358.531 234.812C358.177 235.521 357.938 236.354 357.812 237.312C357.688 238.25 357.625 239.219 357.625 240.219C357.625 242.49 358.021 244.354 358.812 245.812C359.604 247.271 360.729 248 362.188 248C363.688 248 364.833 247.344 365.625 246.031C366.438 244.719 366.844 242.865 366.844 240.469ZM372.094 266.719C372.094 266.01 371.896 265.302 371.5 264.594C371.104 263.906 370.219 263.344 368.844 262.906C368.094 262.781 366.854 262.698 365.125 262.656C363.417 262.615 361.062 262.594 358.062 262.594C357.333 263.219 356.719 263.958 356.219 264.812C355.74 265.667 355.5 266.698 355.5 267.906C355.5 268.427 355.646 269 355.938 269.625C356.229 270.25 356.688 270.833 357.312 271.375C358.042 271.979 358.854 272.448 359.75 272.781C360.646 273.135 362 273.312 363.812 273.312C366.5 273.312 368.552 272.792 369.969 271.75C371.385 270.708 372.094 269.031 372.094 266.719ZM417.031 254.531C416.302 255.719 415.417 256.844 414.375 257.906C413.354 258.948 412.188 259.844 410.875 260.594C409.479 261.385 408.062 261.979 406.625 262.375C405.208 262.792 403.573 263 401.719 263C398.635 263 395.969 262.562 393.719 261.688C391.49 260.812 389.646 259.635 388.188 258.156C386.729 256.677 385.635 254.938 384.906 252.938C384.198 250.917 383.844 248.729 383.844 246.375C383.844 244.25 384.229 242.219 385 240.281C385.792 238.323 386.906 236.583 388.344 235.062C389.76 233.583 391.542 232.385 393.688 231.469C395.854 230.552 398.271 230.094 400.938 230.094C403.854 230.094 406.25 230.448 408.125 231.156C410 231.865 411.552 232.844 412.781 234.094C413.969 235.281 414.833 236.688 415.375 238.312C415.917 239.917 416.188 241.604 416.188 243.375V245.406H395.062C395.062 249.677 395.885 252.927 397.531 255.156C399.177 257.385 401.792 258.5 405.375 258.5C407.333 258.5 409.094 257.969 410.656 256.906C412.219 255.823 413.552 254.458 414.656 252.812L417.031 254.531ZM405.094 242.656C405.094 241.406 405.031 240.125 404.906 238.812C404.781 237.5 404.562 236.427 404.25 235.594C403.896 234.615 403.406 233.875 402.781 233.375C402.177 232.875 401.406 232.625 400.469 232.625C398.865 232.625 397.583 233.438 396.625 235.062C395.667 236.688 395.146 239.26 395.062 242.781L405.094 242.656ZM451.188 236.719C451.188 238.302 450.698 239.698 449.719 240.906C448.74 242.094 447.448 242.688 445.844 242.688C444.323 242.688 443.031 242.302 441.969 241.531C440.927 240.76 440.406 239.625 440.406 238.125C440.406 237.396 440.458 236.833 440.562 236.438C440.667 236.021 440.76 235.635 440.844 235.281C439.885 235.323 438.875 235.656 437.812 236.281C436.75 236.906 435.812 237.74 435 238.781V255.938C435 256.667 435.115 257.271 435.344 257.75C435.573 258.229 435.958 258.604 436.5 258.875C436.958 259.104 437.698 259.302 438.719 259.469C439.76 259.615 440.51 259.698 440.969 259.719V262H420.062V259.719C420.583 259.677 421.104 259.625 421.625 259.562C422.167 259.479 422.625 259.375 423 259.25C423.667 259.021 424.125 258.667 424.375 258.188C424.625 257.708 424.75 257.083 424.75 256.312V238.125C424.75 237.375 424.573 236.708 424.219 236.125C423.865 235.521 423.438 235.042 422.938 234.688C422.562 234.438 422.083 234.229 421.5 234.062C420.938 233.896 420.312 233.781 419.625 233.719V231.438L434.531 230.625L435 231.094V235.625H435.125C436.562 233.958 438.083 232.656 439.688 231.719C441.312 230.76 443 230.281 444.75 230.281C446.688 230.281 448.24 230.885 449.406 232.094C450.594 233.281 451.188 234.823 451.188 236.719ZM467.844 263.062C465.823 263.062 463.844 262.76 461.906 262.156C459.99 261.573 458.5 260.948 457.438 260.281L456.5 262.406H454.062L453.656 250.75H455.938C456.25 251.688 456.771 252.75 457.5 253.938C458.229 255.104 459.062 256.156 460 257.094C460.979 258.031 462.094 258.823 463.344 259.469C464.615 260.115 465.969 260.438 467.406 260.438C469.302 260.438 470.708 260.073 471.625 259.344C472.562 258.594 473.031 257.448 473.031 255.906C473.031 255.073 472.823 254.385 472.406 253.844C471.99 253.302 471.417 252.833 470.688 252.438C469.875 252.021 468.979 251.667 468 251.375C467.042 251.083 465.854 250.729 464.438 250.312C463.021 249.896 461.802 249.479 460.781 249.062C459.781 248.625 458.74 247.948 457.656 247.031C456.719 246.219 455.969 245.24 455.406 244.094C454.844 242.948 454.562 241.583 454.562 240C454.562 237.062 455.792 234.688 458.25 232.875C460.729 231.062 463.969 230.156 467.969 230.156C469.865 230.156 471.604 230.354 473.188 230.75C474.792 231.125 476.135 231.542 477.219 232L477.875 230.156H480.25L480.75 240.812H478.531C477.802 238.646 476.552 236.781 474.781 235.219C473.01 233.635 471.104 232.844 469.062 232.844C467.458 232.844 466.198 233.177 465.281 233.844C464.365 234.51 463.906 235.438 463.906 236.625C463.906 238.208 464.573 239.354 465.906 240.062C467.26 240.771 469.146 241.438 471.562 242.062C475.292 243.021 478.021 244.333 479.75 246C481.479 247.646 482.344 249.75 482.344 252.312C482.344 255.729 481 258.375 478.312 260.25C475.646 262.125 472.156 263.062 467.844 263.062Z" fill="#332100"/>
<path d="M268.5 185C114.5 185 37.3333 200.333 18 208" stroke="#FFA500" stroke-width="10"/>
</svg>
