<svg width="52" height="51" viewBox="0 0 52 51" fill="none" xmlns="http://www.w3.org/2000/svg">
<rect x="10" y="10.5" width="30" height="30" rx="15" fill="#D6DAD5"/>
<path d="M25.0196 16.41C21.7096 16.41 19.0196 19.1 19.0196 22.41V25.3C19.0196 25.91 18.7596 26.84 18.4496 27.36L17.2996 29.27C16.5896 30.45 17.0796 31.76 18.3796 32.2C22.6896 33.64 27.3396 33.64 31.6496 32.2C32.8596 31.8 33.3896 30.37 32.7296 29.27L31.5796 27.36C31.2796 26.84 31.0196 25.91 31.0196 25.3V22.41C31.0196 19.11 28.3196 16.41 25.0196 16.41Z" stroke="#292D32" stroke-width="1.5" stroke-miterlimit="10" stroke-linecap="round"/>
<path d="M26.8699 16.7C26.5599 16.61 26.2399 16.54 25.9099 16.5C24.9499 16.38 24.0299 16.45 23.1699 16.7C23.4599 15.96 24.1799 15.44 25.0199 15.44C25.8599 15.44 26.5799 15.96 26.8699 16.7Z" stroke="#292D32" stroke-width="1.5" stroke-miterlimit="10" stroke-linecap="round" stroke-linejoin="round"/>
<path d="M28.0195 32.56C28.0195 34.21 26.6695 35.56 25.0195 35.56C24.1995 35.56 23.4395 35.22 22.8995 34.68C22.3595 34.14 22.0195 33.38 22.0195 32.56" stroke="#292D32" stroke-width="1.5" stroke-miterlimit="10"/>
<circle cx="36.5" cy="16" r="5.5" fill="#B31515"/>
</svg>
