<svg width="107" height="19" viewBox="0 0 107 19" fill="none" xmlns="http://www.w3.org/2000/svg">
<path d="M16.7128 6.53677L12.2497 5.88814L10.2546 1.84341C10.2001 1.73267 10.1105 1.64302 9.99972 1.58853C9.72198 1.45142 9.38448 1.56568 9.24562 1.84341L7.2505 5.88814L2.78741 6.53677C2.66437 6.55435 2.55187 6.61236 2.46573 6.70025C2.3616 6.80728 2.30422 6.95127 2.3062 7.10058C2.30818 7.24989 2.36935 7.39231 2.47628 7.49654L5.70538 10.6448L4.94249 15.0903C4.9246 15.1937 4.93605 15.3001 4.97552 15.3973C5.015 15.4945 5.08094 15.5788 5.16585 15.6404C5.25077 15.7021 5.35127 15.7388 5.45595 15.7462C5.56063 15.7537 5.66531 15.7317 5.75812 15.6827L9.75011 13.5838L13.7421 15.6827C13.8511 15.7407 13.9776 15.76 14.0989 15.7389C14.4048 15.6862 14.6105 15.3961 14.5577 15.0903L13.7948 10.6448L17.0239 7.49654C17.1118 7.41041 17.1698 7.29791 17.1874 7.17486C17.2349 6.86724 17.0204 6.58248 16.7128 6.53677Z" fill="#FFD700"/>
<path d="M38.7128 6.53677L34.2497 5.88814L32.2546 1.84341C32.2001 1.73267 32.1105 1.64302 31.9997 1.58853C31.722 1.45142 31.3845 1.56568 31.2456 1.84341L29.2505 5.88814L24.7874 6.53677C24.6644 6.55435 24.5519 6.61236 24.4657 6.70025C24.3616 6.80728 24.3042 6.95127 24.3062 7.10058C24.3082 7.24989 24.3694 7.39231 24.4763 7.49654L27.7054 10.6448L26.9425 15.0903C26.9246 15.1937 26.936 15.3001 26.9755 15.3973C27.015 15.4945 27.0809 15.5788 27.1659 15.6404C27.2508 15.7021 27.3513 15.7388 27.4559 15.7462C27.5606 15.7537 27.6653 15.7317 27.7581 15.6827L31.7501 13.5838L35.7421 15.6827C35.8511 15.7407 35.9776 15.76 36.0989 15.7389C36.4048 15.6862 36.6105 15.3961 36.5577 15.0903L35.7948 10.6448L39.0239 7.49654C39.1118 7.41041 39.1698 7.29791 39.1874 7.17486C39.2349 6.86724 39.0204 6.58248 38.7128 6.53677Z" fill="#FFD700"/>
<path d="M60.7128 6.53677L56.2497 5.88814L54.2546 1.84341C54.2001 1.73267 54.1105 1.64302 53.9997 1.58853C53.722 1.45142 53.3845 1.56568 53.2456 1.84341L51.2505 5.88814L46.7874 6.53677C46.6644 6.55435 46.5519 6.61236 46.4657 6.70025C46.3616 6.80728 46.3042 6.95127 46.3062 7.10058C46.3082 7.24989 46.3694 7.39231 46.4763 7.49654L49.7054 10.6448L48.9425 15.0903C48.9246 15.1937 48.936 15.3001 48.9755 15.3973C49.015 15.4945 49.0809 15.5788 49.1659 15.6404C49.2508 15.7021 49.3513 15.7388 49.4559 15.7462C49.5606 15.7537 49.6653 15.7317 49.7581 15.6827L53.7501 13.5838L57.7421 15.6827C57.8511 15.7407 57.9776 15.76 58.0989 15.7389C58.4048 15.6862 58.6105 15.3961 58.5577 15.0903L57.7948 10.6448L61.0239 7.49654C61.1118 7.41041 61.1698 7.29791 61.1874 7.17486C61.2349 6.86724 61.0204 6.58248 60.7128 6.53677Z" fill="#FFD700"/>
<path d="M82.7128 6.53677L78.2497 5.88814L76.2546 1.84341C76.2001 1.73267 76.1105 1.64302 75.9997 1.58853C75.722 1.45142 75.3845 1.56568 75.2456 1.84341L73.2505 5.88814L68.7874 6.53677C68.6644 6.55435 68.5519 6.61236 68.4657 6.70025C68.3616 6.80728 68.3042 6.95127 68.3062 7.10058C68.3082 7.24989 68.3694 7.39231 68.4763 7.49654L71.7054 10.6448L70.9425 15.0903C70.9246 15.1937 70.936 15.3001 70.9755 15.3973C71.015 15.4945 71.0809 15.5788 71.1659 15.6404C71.2508 15.7021 71.3513 15.7388 71.4559 15.7462C71.5606 15.7537 71.6653 15.7317 71.7581 15.6827L75.7501 13.5838L79.7421 15.6827C79.8511 15.7407 79.9776 15.76 80.0989 15.7389C80.4048 15.6862 80.6105 15.3961 80.5577 15.0903L79.7948 10.6448L83.0239 7.49654C83.1118 7.41041 83.1698 7.29791 83.1874 7.17486C83.2349 6.86724 83.0204 6.58248 82.7128 6.53677Z" fill="#FFD700"/>
<path d="M104.713 6.53677L100.25 5.88814L98.2546 1.84341C98.2001 1.73267 98.1105 1.64302 97.9997 1.58853C97.722 1.45142 97.3845 1.56568 97.2456 1.84341L95.2505 5.88814L90.7874 6.53677C90.6644 6.55435 90.5519 6.61236 90.4657 6.70025C90.3616 6.80728 90.3042 6.95127 90.3062 7.10058C90.3082 7.24989 90.3694 7.39231 90.4763 7.49654L93.7054 10.6448L92.9425 15.0903C92.9246 15.1937 92.936 15.3001 92.9755 15.3973C93.015 15.4945 93.0809 15.5788 93.1659 15.6404C93.2508 15.7021 93.3513 15.7388 93.4559 15.7462C93.5606 15.7537 93.6653 15.7317 93.7581 15.6827L97.7501 13.5838L101.742 15.6827C101.851 15.7407 101.978 15.76 102.099 15.7389C102.405 15.6862 102.61 15.3961 102.558 15.0903L101.795 10.6448L105.024 7.49654C105.112 7.41041 105.17 7.29791 105.187 7.17486C105.235 6.86724 105.02 6.58248 104.713 6.53677Z" fill="white"/>
</svg>
