<svg width="207" height="37" viewBox="0 0 207 37" fill="none" xmlns="http://www.w3.org/2000/svg">
<rect width="207" height="37" rx="4" fill="#FFFAF0"/>
<path d="M17.0258 18.6549C16.9914 18.5514 16.9914 18.4394 17.0258 18.3359C17.7183 16.2527 19.6837 14.75 22.0001 14.75C24.3154 14.75 26.2799 16.2512 26.9738 18.3334C27.0087 18.4367 27.0087 18.5486 26.9738 18.6524C26.2819 20.7356 24.3164 22.2383 22.0001 22.2383C19.6847 22.2383 17.7203 20.7371 17.0263 18.6549H17.0258Z" stroke="#FF8A1E" stroke-width="1.5" stroke-linecap="round" stroke-linejoin="round"/>
<path d="M23.25 18.5C23.25 18.8315 23.1183 19.1495 22.8839 19.3839C22.6495 19.6183 22.3315 19.75 22 19.75C21.6685 19.75 21.3505 19.6183 21.1161 19.3839C20.8817 19.1495 20.75 18.8315 20.75 18.5C20.75 18.1685 20.8817 17.8505 21.1161 17.6161C21.3505 17.3817 21.6685 17.25 22 17.25C22.3315 17.25 22.6495 17.3817 22.8839 17.6161C23.1183 17.8505 23.25 18.1685 23.25 18.5V18.5Z" stroke="#FF8A1E" stroke-width="1.5" stroke-linecap="round" stroke-linejoin="round"/>
<path d="M43.0342 16.1094L38.1602 25.4951H37.3057L41.8926 16.8135H39.2061C38.8096 16.8135 38.4997 16.818 38.2764 16.8271C38.0531 16.8363 37.848 16.8796 37.6611 16.957C37.5199 17.0163 37.3923 17.1689 37.2783 17.415C37.1689 17.6566 37.0846 17.9665 37.0254 18.3447H36.6084V15.665H43.0342V16.1094ZM50.6768 20.4297C50.6768 21.1953 50.3464 21.8538 49.6855 22.4053C49.0247 22.9567 48.1566 23.2324 47.0811 23.2324C46.0739 23.2324 45.2673 22.9795 44.6611 22.4736C44.055 21.9678 43.752 21.3161 43.752 20.5186C43.752 19.9307 43.9297 19.4408 44.2852 19.0488C44.6452 18.6523 45.1761 18.3174 45.8779 18.0439C45.2992 17.7204 44.8662 17.3649 44.5791 16.9775C44.292 16.5902 44.1484 16.1527 44.1484 15.665C44.1484 14.9222 44.4629 14.3001 45.0918 13.7988C45.7253 13.2975 46.4818 13.0469 47.3613 13.0469C48.2409 13.0469 48.9518 13.2839 49.4941 13.7578C50.041 14.2318 50.3145 14.8265 50.3145 15.542C50.3145 16.0023 50.1641 16.4398 49.8633 16.8545C49.5625 17.2646 49.1204 17.6019 48.5371 17.8662C49.2936 18.1898 49.8382 18.5475 50.1709 18.9395C50.5081 19.3314 50.6768 19.8281 50.6768 20.4297ZM49.0225 15.4668C49.0225 14.9108 48.8561 14.4596 48.5234 14.1133C48.1953 13.7624 47.7738 13.5869 47.2588 13.5869C46.7438 13.5869 46.3223 13.7555 45.9941 14.0928C45.666 14.4255 45.502 14.8402 45.502 15.3369C45.502 15.8154 45.6888 16.221 46.0625 16.5537C46.4362 16.8864 47.1016 17.2419 48.0586 17.6201C48.4004 17.4014 48.6465 17.112 48.7969 16.752C48.9473 16.3919 49.0225 15.9635 49.0225 15.4668ZM49.3096 20.751C49.3096 20.4639 49.248 20.2132 49.125 19.999C49.002 19.7803 48.8242 19.582 48.5918 19.4043C48.3685 19.2311 48.0563 19.0511 47.6553 18.8643C47.2588 18.6729 46.8281 18.4792 46.3633 18.2832C45.9258 18.5202 45.6045 18.8232 45.3994 19.1924C45.1943 19.557 45.0918 19.974 45.0918 20.4434C45.0918 21.1133 45.2878 21.6556 45.6797 22.0703C46.0762 22.4805 46.6025 22.6855 47.2588 22.6855C47.8877 22.6855 48.3867 22.5033 48.7559 22.1387C49.125 21.7741 49.3096 21.3115 49.3096 20.751ZM58.6133 19.4727C58.6133 20.2656 58.488 21.013 58.2373 21.7148C57.9867 22.4121 57.6266 23.0251 57.1572 23.5537C56.6969 24.0732 56.1341 24.5039 55.4688 24.8457C54.8079 25.1921 54.0674 25.4199 53.2471 25.5293L53.124 24.9141L53.7393 24.8047C54.7191 24.4948 55.4847 24.0186 56.0361 23.376C56.5876 22.7334 56.943 21.9176 57.1025 20.9287C56.7288 21.2477 56.3551 21.4824 55.9814 21.6328C55.6123 21.7786 55.1953 21.8516 54.7305 21.8516C53.9876 21.8516 53.3405 21.5622 52.7891 20.9834C52.2422 20.4046 51.9688 19.6755 51.9688 18.7959C51.9688 17.8525 52.2855 17.0573 52.9189 16.4102C53.557 15.763 54.3431 15.4395 55.2773 15.4395C56.2936 15.4395 57.1025 15.8018 57.7041 16.5264C58.3102 17.251 58.6133 18.2331 58.6133 19.4727ZM57.1641 19.3906C57.1641 18.3242 56.9886 17.4902 56.6377 16.8887C56.2913 16.2826 55.8333 15.9795 55.2637 15.9795C54.7214 15.9795 54.2839 16.2142 53.9512 16.6836C53.6185 17.1484 53.4521 17.791 53.4521 18.6113C53.4521 19.3496 53.6208 19.9421 53.958 20.3887C54.2998 20.8353 54.7555 21.0586 55.3252 21.0586C55.6807 21.0586 56.0065 20.9948 56.3027 20.8672C56.599 20.735 56.8747 20.5254 57.1299 20.2383C57.1299 20.2201 57.1322 20.1836 57.1367 20.1289C57.1458 20.0742 57.1504 19.9967 57.1504 19.8965C57.1504 19.8327 57.1527 19.7552 57.1572 19.6641C57.1618 19.5729 57.1641 19.4818 57.1641 19.3906Z" fill="black"/>
<path d="M98 16C98 14.3433 96.6007 13 94.8747 13C93.5847 13 92.4767 13.7507 92 14.822C91.5233 13.7507 90.4153 13 89.1247 13C87.4 13 86 14.3433 86 16C86 20.8133 92 24 92 24C92 24 98 20.8133 98 16Z" stroke="#F2062A" stroke-width="1.5" stroke-linecap="round" stroke-linejoin="round"/>
<path d="M111.349 19.8486C111.349 20.3226 111.262 20.7669 111.089 21.1816C110.92 21.5964 110.692 21.9495 110.405 22.2412C110.073 22.5739 109.703 22.82 109.298 22.9795C108.897 23.139 108.478 23.2188 108.04 23.2188C107.534 23.2188 107.076 23.1253 106.666 22.9385C106.256 22.7516 105.907 22.4873 105.62 22.1455C105.328 21.7992 105.103 21.3753 104.943 20.874C104.784 20.3727 104.704 19.8099 104.704 19.1855C104.704 17.5586 105.187 16.1868 106.153 15.0703C107.124 13.9538 108.423 13.2839 110.05 13.0605L110.173 13.6758L109.558 13.7852C108.569 14.1042 107.803 14.6009 107.261 15.2754C106.723 15.9499 106.374 16.7679 106.215 17.7295C106.607 17.3877 106.994 17.1462 107.377 17.0049C107.76 16.8636 108.163 16.793 108.587 16.793C109.348 16.793 109.997 17.0846 110.535 17.668C111.077 18.2513 111.349 18.9782 111.349 19.8486ZM109.865 20.0332C109.865 19.2949 109.694 18.7025 109.353 18.2559C109.015 17.8092 108.562 17.5859 107.992 17.5859C107.65 17.5859 107.331 17.6497 107.035 17.7773C106.743 17.9049 106.461 18.1191 106.188 18.4199C106.183 18.4746 106.176 18.6022 106.167 18.8027C106.158 18.9987 106.153 19.1536 106.153 19.2676C106.153 20.334 106.326 21.1702 106.673 21.7764C107.024 22.3779 107.484 22.6787 108.054 22.6787C108.596 22.6787 109.034 22.444 109.366 21.9746C109.699 21.5007 109.865 20.8535 109.865 20.0332ZM118.964 16.1094L114.09 25.4951H113.235L117.822 16.8135H115.136C114.739 16.8135 114.429 16.818 114.206 16.8271C113.983 16.8363 113.778 16.8796 113.591 16.957C113.45 17.0163 113.322 17.1689 113.208 17.415C113.099 17.6566 113.014 17.9665 112.955 18.3447H112.538V15.665H118.964V16.1094ZM126.381 22.3848H124.993V25.4951H123.681V22.3848H119.306V21.332L124.098 15.4873H124.993V21.4893H126.381V22.3848ZM123.681 21.4893V17.0117L119.989 21.4893H123.681Z" fill="black"/>
<path d="M162.729 12.7146C163.462 12.8 164 13.4326 164 14.1713V24.5L159 22L154 24.5V14.1713C154 13.4326 154.537 12.8 155.271 12.7146C157.749 12.4271 160.251 12.4271 162.729 12.7146V12.7146Z" stroke="#0294E5" stroke-width="1.5" stroke-linecap="round" stroke-linejoin="round"/>
<path d="M178.034 16.1094L173.16 25.4951H172.306L176.893 16.8135H174.206C173.81 16.8135 173.5 16.818 173.276 16.8271C173.053 16.8363 172.848 16.8796 172.661 16.957C172.52 17.0163 172.392 17.1689 172.278 17.415C172.169 17.6566 172.085 17.9665 172.025 18.3447H171.608V15.665H178.034V16.1094ZM185.677 20.4297C185.677 21.1953 185.346 21.8538 184.686 22.4053C184.025 22.9567 183.157 23.2324 182.081 23.2324C181.074 23.2324 180.267 22.9795 179.661 22.4736C179.055 21.9678 178.752 21.3161 178.752 20.5186C178.752 19.9307 178.93 19.4408 179.285 19.0488C179.645 18.6523 180.176 18.3174 180.878 18.0439C180.299 17.7204 179.866 17.3649 179.579 16.9775C179.292 16.5902 179.148 16.1527 179.148 15.665C179.148 14.9222 179.463 14.3001 180.092 13.7988C180.725 13.2975 181.482 13.0469 182.361 13.0469C183.241 13.0469 183.952 13.2839 184.494 13.7578C185.041 14.2318 185.314 14.8265 185.314 15.542C185.314 16.0023 185.164 16.4398 184.863 16.8545C184.562 17.2646 184.12 17.6019 183.537 17.8662C184.294 18.1898 184.838 18.5475 185.171 18.9395C185.508 19.3314 185.677 19.8281 185.677 20.4297ZM184.022 15.4668C184.022 14.9108 183.856 14.4596 183.523 14.1133C183.195 13.7624 182.774 13.5869 182.259 13.5869C181.744 13.5869 181.322 13.7555 180.994 14.0928C180.666 14.4255 180.502 14.8402 180.502 15.3369C180.502 15.8154 180.689 16.221 181.062 16.5537C181.436 16.8864 182.102 17.2419 183.059 17.6201C183.4 17.4014 183.646 17.112 183.797 16.752C183.947 16.3919 184.022 15.9635 184.022 15.4668ZM184.31 20.751C184.31 20.4639 184.248 20.2132 184.125 19.999C184.002 19.7803 183.824 19.582 183.592 19.4043C183.368 19.2311 183.056 19.0511 182.655 18.8643C182.259 18.6729 181.828 18.4792 181.363 18.2832C180.926 18.5202 180.604 18.8232 180.399 19.1924C180.194 19.557 180.092 19.974 180.092 20.4434C180.092 21.1133 180.288 21.6556 180.68 22.0703C181.076 22.4805 181.603 22.6855 182.259 22.6855C182.888 22.6855 183.387 22.5033 183.756 22.1387C184.125 21.7741 184.31 21.3115 184.31 20.751ZM193.613 19.4727C193.613 20.2656 193.488 21.013 193.237 21.7148C192.987 22.4121 192.627 23.0251 192.157 23.5537C191.697 24.0732 191.134 24.5039 190.469 24.8457C189.808 25.1921 189.067 25.4199 188.247 25.5293L188.124 24.9141L188.739 24.8047C189.719 24.4948 190.485 24.0186 191.036 23.376C191.588 22.7334 191.943 21.9176 192.103 20.9287C191.729 21.2477 191.355 21.4824 190.981 21.6328C190.612 21.7786 190.195 21.8516 189.73 21.8516C188.988 21.8516 188.34 21.5622 187.789 20.9834C187.242 20.4046 186.969 19.6755 186.969 18.7959C186.969 17.8525 187.285 17.0573 187.919 16.4102C188.557 15.763 189.343 15.4395 190.277 15.4395C191.294 15.4395 192.103 15.8018 192.704 16.5264C193.31 17.251 193.613 18.2331 193.613 19.4727ZM192.164 19.3906C192.164 18.3242 191.989 17.4902 191.638 16.8887C191.291 16.2826 190.833 15.9795 190.264 15.9795C189.721 15.9795 189.284 16.2142 188.951 16.6836C188.618 17.1484 188.452 17.791 188.452 18.6113C188.452 19.3496 188.621 19.9421 188.958 20.3887C189.3 20.8353 189.756 21.0586 190.325 21.0586C190.681 21.0586 191.007 20.9948 191.303 20.8672C191.599 20.735 191.875 20.5254 192.13 20.2383C192.13 20.2201 192.132 20.1836 192.137 20.1289C192.146 20.0742 192.15 19.9967 192.15 19.8965C192.15 19.8327 192.153 19.7552 192.157 19.6641C192.162 19.5729 192.164 19.4818 192.164 19.3906Z" fill="black"/>
</svg>
