<svg width="46" height="46" viewBox="0 0 46 46" fill="none" xmlns="http://www.w3.org/2000/svg">
<path d="M18.4163 10.428C17.7086 10.428 17.0574 10.5647 16.4623 10.8381C14.6959 11.7272 13.653 13.4169 13.6397 15.301V28.2796C13.9711 30.3429 16.3327 29.7819 16.3899 28.2796V16.0248C16.6003 15.3259 17.9498 15.6157 17.982 16.0248V44.1532C18.3251 47.0254 22.0367 46.1823 22.1313 44.105V26.8805C22.3686 25.7695 23.9305 26.2743 23.9647 26.9287C23.8985 32.6539 23.9165 38.3795 23.9165 44.105C24.2866 46.9624 27.9801 46.2313 28.0658 44.1532L28.114 16.0248C28.3303 15.341 29.5808 15.6032 29.6098 16.0248V28.2796C29.9411 30.3429 32.3027 29.7819 32.3599 28.2796V15.301C32.3265 13.4972 31.6654 11.6901 30.0922 10.8381C29.5776 10.5647 28.9503 10.428 28.2105 10.428L18.4163 10.428ZM18.4649 4.53395C18.4649 7.038 20.4949 9.06794 22.9989 9.06794C25.5029 9.06794 27.5329 7.038 27.5329 4.53395C27.5329 2.02994 25.503 0 22.999 0C20.4949 0 18.4649 2.02994 18.4649 4.53395Z" fill="black"/>
</svg>
