<svg width="33" height="39" viewBox="0 0 33 39" fill="none" xmlns="http://www.w3.org/2000/svg">
<path d="M17.4745 0.710961C19.5272 0.679199 21.5682 0.698021 23.6068 0.679199C23.7303 3.08013 24.5937 5.52577 26.3512 7.22324C28.1052 8.96307 30.5861 9.75946 33 10.0288V16.3447C30.7378 16.2706 28.4651 15.8 26.4124 14.826C25.5184 14.4213 24.6855 13.9002 23.8703 13.3673C23.8597 17.9504 23.8891 22.5276 23.8409 27.0918C23.7185 29.2845 22.9951 31.4667 21.7199 33.2736C19.6684 36.2815 16.1075 38.2425 12.4503 38.3036C10.207 38.4319 7.96602 37.8201 6.05444 36.6932C2.88653 34.8252 0.657343 31.4055 0.33267 27.7353C0.295027 26.9507 0.282087 26.1672 0.313848 25.4014C0.596173 22.417 2.07249 19.562 4.36403 17.6198C6.96141 15.3577 10.5999 14.2802 14.0066 14.9178C14.0383 17.2411 13.9454 19.562 13.9454 21.8853C12.3891 21.3818 10.5705 21.523 9.2106 22.4676C8.21776 23.111 7.46371 24.0968 7.07081 25.212C6.74614 26.0072 6.83907 26.8907 6.85789 27.7353C7.2308 30.3091 9.70584 32.4725 12.3479 32.2384C14.0995 32.2195 15.7782 31.2032 16.691 29.7151C16.9863 29.194 17.3168 28.6611 17.3345 28.0482C17.4886 25.2426 17.4274 22.4488 17.4462 19.6432C17.4592 13.3203 17.4274 7.01503 17.4756 0.712137L17.4745 0.710961Z" fill="white"/>
</svg>
