<svg width="41" height="29" viewBox="0 0 41 29" fill="none" xmlns="http://www.w3.org/2000/svg">
<path d="M12.3 14.4954C16.2655 14.4954 19.475 11.2663 19.475 7.27661C19.475 3.28696 16.2655 0.0578613 12.3 0.0578613C8.33453 0.0578613 5.125 3.28696 5.125 7.27661C5.125 11.2663 8.33453 14.4954 12.3 14.4954ZM17.22 16.5579H16.6883C15.3558 17.2024 13.8759 17.5891 12.3 17.5891C10.7241 17.5891 9.25062 17.2024 7.91172 16.5579H7.38C3.30562 16.5579 0 19.8836 0 23.9829V25.8391C0 27.5471 1.37734 28.9329 3.075 28.9329H21.525C23.2227 28.9329 24.6 27.5471 24.6 25.8391V23.9829C24.6 19.8836 21.2944 16.5579 17.22 16.5579ZM30.75 14.4954C34.1453 14.4954 36.9 11.7239 36.9 8.30786C36.9 4.89185 34.1453 2.12036 30.75 2.12036C27.3547 2.12036 24.6 4.89185 24.6 8.30786C24.6 11.7239 27.3547 14.4954 30.75 14.4954ZM33.825 16.5579H33.5816C32.6911 16.8672 31.7494 17.0735 30.75 17.0735C29.7506 17.0735 28.8089 16.8672 27.9184 16.5579H27.675C26.3681 16.5579 25.1637 16.9381 24.1067 17.5504C25.6698 19.2456 26.65 21.495 26.65 23.9829V26.4579C26.65 26.5997 26.618 26.735 26.6116 26.8704H37.925C39.6227 26.8704 41 25.4846 41 23.7766C41 19.787 37.7905 16.5579 33.825 16.5579Z" fill="black"/>
</svg>
