<svg width="45" height="31" viewBox="0 0 45 31" fill="none" xmlns="http://www.w3.org/2000/svg">
<path d="M17.8171 21.1488L29.5911 15.0577L17.8171 8.91553V21.1488Z" fill="#493B51"/>
<path opacity="0.12" d="M17.8171 8.91553L28.1449 15.8063L29.5911 15.0577L17.8171 8.91553Z" fill="#420000"/>
<path d="M43.6281 6.78858C43.6281 6.78858 43.2029 3.79405 41.8933 2.46694C40.2435 0.731471 38.3897 0.731471 37.5223 0.629385C31.4505 0.187012 22.3174 0.187012 22.3174 0.187012H22.3004C22.3004 0.187012 13.1672 0.187012 7.06148 0.629385C6.21109 0.731471 4.35725 0.731471 2.6905 2.46694C1.39791 3.79405 0.972718 6.78858 0.972718 6.78858C0.972718 6.78858 0.530518 10.3276 0.530518 13.8495V17.1503C0.530518 20.6723 0.972718 24.1943 0.972718 24.1943C0.972718 24.1943 1.39791 27.1888 2.7075 28.5159C4.35725 30.2514 6.53424 30.2003 7.50368 30.3705C10.9903 30.7108 22.3004 30.8128 22.3004 30.8128C22.3004 30.8128 31.4505 30.7958 37.5393 30.3535C38.3897 30.2514 40.2435 30.2514 41.9103 28.5159C43.2199 27.1888 43.6451 24.1943 43.6451 24.1943C43.6451 24.1943 44.0873 20.6723 44.0873 17.1503V13.8495C44.0703 10.3276 43.6281 6.78858 43.6281 6.78858ZM17.8104 21.1487V8.91538L29.5797 15.0576L17.8104 21.1487Z" fill="url(#paint0_linear_1_422)"/>
<defs>
<linearGradient id="paint0_linear_1_422" x1="22.3004" y1="0.187012" x2="22.3004" y2="30.8221" gradientUnits="userSpaceOnUse">
<stop stop-color="white"/>
<stop offset="1" stop-color="white"/>
</linearGradient>
</defs>
</svg>
